<?xml version="1.0" encoding="UTF-8" standalone="no"?>
<!-- Created with Inkscape (http://www.inkscape.org/) -->

<svg
   width="200"
   height="160"
   viewBox="0 0 52.91666 42.333326"
   version="1.1"
   id="svg1"
   xml:space="preserve"
   inkscape:version="1.3.2 (1:1.3.2+202311252150+091e20ef0f)"
   sodipodi:docname="logo_transparent_white.svg"
   xmlns:inkscape="http://www.inkscape.org/namespaces/inkscape"
   xmlns:sodipodi="http://sodipodi.sourceforge.net/DTD/sodipodi-0.dtd"
   xmlns="http://www.w3.org/2000/svg"
   xmlns:svg="http://www.w3.org/2000/svg"><sodipodi:namedview
     id="namedview1"
     pagecolor="#ffffff"
     bordercolor="#666666"
     borderopacity="1.0"
     inkscape:showpageshadow="2"
     inkscape:pageopacity="0.0"
     inkscape:pagecheckerboard="0"
     inkscape:deskcolor="#d1d1d1"
     inkscape:document-units="mm"
     showguides="true"
     inkscape:zoom="2.9631822"
     inkscape:cx="81.331482"
     inkscape:cy="68.844906"
     inkscape:window-width="1920"
     inkscape:window-height="1016"
     inkscape:window-x="1920"
     inkscape:window-y="27"
     inkscape:window-maximized="1"
     inkscape:current-layer="text1"
     inkscape:export-bgcolor="#00000000"><sodipodi:guide
       position="26.458329,53.494608"
       orientation="-1,0"
       id="guide1"
       inkscape:locked="false"
       inkscape:label=""
       inkscape:color="rgb(0,134,229)" /><sodipodi:guide
       position="60.538794,21.166663"
       orientation="0,1"
       id="guide2"
       inkscape:locked="false"
       inkscape:label=""
       inkscape:color="rgb(0,134,229)" /></sodipodi:namedview><defs
     id="defs1" /><g
     inkscape:label="Layer 1"
     inkscape:groupmode="layer"
     id="layer1"
     transform="translate(-64.824306,-101.52027)"><g
       id="g2"
       transform="translate(0.51901207,-1.506754)"><g
         id="text1"
         style="font-size:11.5666px;line-height:1.25;text-align:center;letter-spacing:0px;word-spacing:0px;text-anchor:middle;fill:#ffffff;stroke-width:0.289166"
         aria-label="&#10;Pub Quiz"><path
           style="font-size:55.5199px;font-family:'POLYA Regular';-inkscape-font-specification:'POLYA Regular, Normal'"
           d="m 67.243207,131.67214 4.73074,0.081 q 0.786528,0.23133 1.249192,0.47423 0.474231,0.2429 0.71713,0.7634 0.173499,0.33543 0.266031,0.69399 0.09253,0.347 0.09253,0.75183 0,0.71713 -0.335431,1.22606 -0.462664,0.54363 -1.098827,0.7287 -0.624597,0.1735 -1.526791,0.1735 -0.219766,0 -0.439531,0 -0.208199,0 -0.427964,-0.0116 h -0.1388 l -0.0694,0.1041 0.05783,2.57935 1.110393,1.0063 q -0.717129,0 -2.186087,-0.0347 -1.457392,-0.0463 -1.966322,-0.0463 0.127233,-0.16193 0.566763,-0.49736 0.451098,-0.347 0.57833,-0.4858 l 0.01157,-6.53513 q -0.601463,-0.4858 -1.19136,-0.97159 z m 0.508931,0.18506 0.821228,0.64773 0.02313,6.81273 -0.832795,0.68243 q 0.416398,0 1.26076,0.0116 0.844361,0.0116 1.283892,0.0116 -0.346998,-0.35856 -0.682429,-0.71713 l 0.02313,-2.96105 q 0.323865,0 0.867495,0.0347 0.555197,0.0231 0.670863,0.0231 0.740262,0 1.249193,-0.16194 0.50893,-0.16193 0.809662,-0.50893 0.312298,-0.35856 0.404831,-0.67086 0.104099,-0.3123 0.104099,-0.694 0,-0.63616 -0.254465,-1.16822 -0.277599,-0.50893 -0.693996,-0.84436 -0.416398,-0.347 -0.925328,-0.40484 z m 1.515224,0.21977 0.04627,7.25226 q 0.05783,0.15036 0.196632,0.26603 0.138799,0.11566 0.289165,0.23133 -0.242899,0 -0.68243,0.0347 -0.427964,0.0231 -0.532063,0.0231 -0.138799,-0.0116 -0.208199,-0.0116 h -0.104099 l 0.566763,-0.5552 -0.05783,-6.84743 q -0.0347,-0.16193 -0.231332,-0.26603 -0.185066,-0.1041 -0.242899,-0.1388 l 0.0347,-0.0347 z m 0.427964,0 q 1.179794,0 1.781257,0.12723 0.601463,0.12723 0.994727,0.78653 0.266032,0.5899 0.266032,1.29546 0,0.46266 -0.127232,0.84436 -0.115666,0.3817 -0.404831,0.68243 -0.219766,0.19663 -0.532064,0.28916 -0.300732,0.081 -0.636163,0.081 -0.231332,0 -0.693996,-0.0463 -0.462664,-0.0463 -0.693996,-0.0463 0,-0.68243 0.02313,-2.32489 0.02313,-1.64246 0.02313,-1.68872 z m 2.093555,0.0231 q 0.462664,0.0694 0.879062,0.4511 0.427964,0.37013 0.589896,0.82123 0.138799,0.53206 0.138799,1.00629 0,0.347 -0.09253,0.64773 -0.08097,0.28917 -0.277599,0.5205 -0.219765,0.2082 -0.370131,0.32386 -0.150366,0.1041 -0.381698,0.19663 0.381698,-0.37013 0.54363,-0.85592 0.161933,-0.4858 0.161933,-1.08726 0,-0.2776 -0.05783,-0.63617 -0.05783,-0.35856 -0.370131,-0.71713 -0.300732,-0.35856 -0.763396,-0.67086 z m -1.411125,0.16193 q -0.05783,0.40483 -0.08097,0.82123 -0.02313,0.4164 -0.02313,0.82123 0,0.70556 0.01157,1.15666 0.01157,0.43953 0.02313,0.8328 0.09253,0 0.335432,0.0116 0.242898,0.0116 0.381697,0.0116 0.474231,0 0.786529,-0.11567 0.312298,-0.11566 0.462664,-0.46266 0.138799,-0.19663 0.196632,-0.4511 0.0694,-0.25446 0.0694,-0.56676 0,-0.694 -0.266032,-1.19136 -0.254465,-0.49737 -0.751829,-0.68243 -0.497364,-0.18507 -1.145093,-0.18507 z"
           id="path1" /><path
           style="font-family:Nauert;-inkscape-font-specification:'Nauert, Normal'"
           d="m 77.248297,133.66159 0.04627,5.23967 q 0.104099,0.1735 0.231332,0.347 0.138799,0.1735 0.323865,0.21976 0.346998,0 0.566763,-0.17349 0.219765,-0.1735 0.381698,-0.50893 0.0694,-0.4164 0.09253,-0.91377 0.02313,-0.49736 0.02313,-1.07569 0,-0.57833 -0.01157,-1.12196 -0.01157,-0.5552 -0.02313,-1.08726 l -1.029427,-0.87906 h 2.660318 v 5.56353 l 1.006294,0.78653 v 0.15037 q -0.427964,0 -1.468958,0.0231 -1.040994,0.0231 -1.121961,0.0231 l -0.09253,-0.49736 q -0.335432,0.19663 -0.763396,0.347 -0.416398,0.1388 -0.809662,0.1388 -0.439531,0 -0.832795,-0.19664 -0.393265,-0.19663 -0.64773,-0.56676 -0.242898,-0.37013 -0.242898,-0.84436 l 0.08097,-4.04831 q -0.0694,-0.081 -0.462664,-0.40483 -0.393264,-0.32387 -0.50893,-0.5205 z m -2.162954,0.15037 -0.0694,0.081 0.786528,0.61303 q 0,0.7634 -0.02313,2.54466 -0.02313,1.78125 -0.02313,1.92005 0.115666,0.39327 0.439531,0.70556 0.335431,0.30074 0.751829,0.347 0.57833,0 0.925328,-0.0578 0.358564,-0.0694 0.54363,-0.21977 0.185066,-0.16193 0.346998,-0.37013 0.161932,-0.21976 0.266032,-0.21976 l 0.0347,0.86749 1.445825,0.0347 q -0.208199,-0.35856 -0.589897,-0.68243 l 0.0694,-5.37847 -0.0694,-0.1041 h -1.642457 l 0.786529,0.694 -0.0347,3.86324 q 0,0.3817 -0.173499,0.5899 -0.161933,0.19663 -0.451098,0.4858 -0.323864,0.26603 -0.786528,0.26603 -0.150366,0 -0.312299,-0.0347 -0.196632,-0.0925 -0.346998,-0.2082 -0.138799,-0.11567 -0.208198,-0.2776 -0.08097,-0.96003 -0.08097,-2.01259 0,-0.77496 0.02313,-1.96632 0.0347,-1.19136 0.0347,-1.39956 z m 0.601464,0.26603 0.774962,0.0347 q 0,0.72869 -0.05783,1.97789 -0.04627,1.23762 -0.04627,1.30702 0,0.5899 0.0347,1.041 0.04627,0.43953 0.150366,0.98316 0.0694,0.12723 0.231332,0.23133 0.173499,0.1041 0.289165,0.1735 -0.277599,-0.0463 -0.54363,-0.2082 -0.254466,-0.16193 -0.381698,-0.3817 l -0.150366,-0.60146 q 0,-0.4511 0.0347,-1.41113 0.0347,-0.96002 0.0347,-1.44582 v -0.1735 q 0,-0.64773 -0.0694,-1.29546 z m 3.932643,0.0347 0.04627,5.39003 q 0.208199,0.16194 0.416397,0.32387 h -0.832795 v -5.34377 l -0.323865,-0.37013 z m 4.626618,-2.44055 0.01157,2.24392 q 0.242898,-0.0578 0.532063,-0.0925 0.289165,-0.0463 0.555197,-0.0463 0.370131,0 0.64773,0.081 0.277598,0.0694 0.682429,0.42797 0.404831,0.347 0.68243,1.11039 0.277598,0.7634 0.277598,1.60776 0,1.01786 -0.358565,1.97789 -0.196632,0.43953 -0.532063,0.77496 -0.323865,0.32386 -0.636163,0.3817 -0.300732,0.0578 -0.508931,0.081 -0.208198,0.0231 -0.416397,0.0231 -0.358565,0 -0.64773,-0.1041 -0.289165,-0.1041 -0.50893,-0.347 -0.161932,-0.0231 -0.312298,0.15037 -0.150366,0.17349 -0.242899,0.28916 l -0.763395,-0.0347 v -7.66866 l -0.925328,-0.69399 0.05783,-0.16193 z m -2.162954,0.16193 0.774962,0.56676 0.05783,7.70336 h 0.115666 q 0.09253,-0.12723 0.416398,-0.4164 0.335431,-0.30073 0.335431,-0.5899 0.08097,0.1735 0.254466,0.37013 0.173498,0.19664 0.335431,0.3817 0.393264,0.2776 0.913761,0.2776 0.289165,0 0.624597,-0.16193 0.346998,-0.16193 0.613029,-0.60146 0.266032,-0.4511 0.335432,-0.96003 0.173499,-0.694 0.173499,-1.42269 0,-0.7634 -0.219766,-1.4574 -0.208198,-0.70556 -0.647729,-1.24919 -0.427964,-0.35856 -1.087261,-0.35856 -0.161932,0 -0.370131,0.0347 -0.196632,0.0347 -0.462664,0.30073 -0.266031,0.26603 -0.462664,0.62459 v -1.13352 -0.2429 q 0,-0.68243 -0.02313,-0.9369 -0.01157,-0.26603 -0.0694,-0.71712 -0.08097,-0.0116 -0.242899,-0.0116 -0.208199,0 -0.532064,0.0347 -0.312298,0.0231 -0.370131,0.0231 -0.254465,0 -0.462664,-0.0578 z m 1.387992,0.23133 -0.0347,7.29853 q -0.173499,0.21976 -0.346998,0.42796 l -0.04627,-7.43732 q -0.04627,-0.0578 -0.185066,-0.16194 -0.138799,-0.11566 -0.150365,-0.1735 z m 1.353292,2.07042 q 0.1041,-0.0347 0.196632,-0.0347 0.219766,0 0.370132,0.1388 0.150365,0.1388 0.370131,0.4164 0.185065,0.49736 0.277598,1.14509 0.09253,0.63617 0.09253,1.2492 0,1.22605 -0.323865,2.39428 -0.08097,0.15037 -0.231332,0.2776 -0.150366,0.11567 -0.335431,0.2082 h -0.138799 q -0.370132,0 -0.624597,-0.2082 -0.242898,-0.2082 -0.451097,-0.60146 -0.150366,-0.4511 -0.231332,-1.0063 -0.08097,-0.55519 -0.08097,-1.11039 0,-1.16823 0.312298,-2.09356 0.138799,-0.26603 0.335431,-0.46266 0.208199,-0.2082 0.462664,-0.3123 z m 0.763396,0 q 0.624596,0.347 0.890628,1.041 0.266032,0.69399 0.266032,1.59619 0,0.18506 -0.01157,0.34699 0,0.15037 -0.09253,0.84437 -0.08097,0.68243 -0.242898,1.16822 -0.161933,0.47423 -0.670863,0.7981 0.346998,-0.54363 0.497364,-1.22606 0.150366,-0.694 0.150366,-1.53836 0,-0.49736 -0.0347,-0.87906 -0.0347,-0.39326 -0.1041,-0.9022 -0.09253,-0.38169 -0.242898,-0.69399 -0.138799,-0.3123 -0.404831,-0.5552 z m -0.636163,0.28917 q -0.150366,0.0463 -0.277599,0.2429 -0.127232,0.18506 -0.161932,0.24289 -0.231332,1.06413 -0.231332,2.23236 0,0.61303 0.0694,1.14509 0.0694,0.5205 0.242898,1.0063 0.09253,0.18506 0.266032,0.30073 0.173499,0.11566 0.381698,0.081 0.312298,-0.1388 0.47423,-0.55519 0.1388,-0.49737 0.219766,-0.71713 0,-0.40483 0.01157,-0.77496 0.01157,-0.3817 0.02313,-0.75183 0,-0.5899 -0.0694,-1.05256 -0.05783,-0.47423 -0.254465,-0.99473 -0.1041,-0.19663 -0.231332,-0.3123 -0.127233,-0.11567 -0.323865,-0.11567 -0.04627,0 -0.138799,0.0231 z m 9.160732,-2.64875 q 0.115666,-0.0116 0.196632,-0.0116 0.09253,-0.0116 0.150366,-0.0116 0.786528,0 1.422691,0.4164 0.64773,0.40483 1.22606,1.58462 0.589897,1.1798 0.589897,2.72972 0,1.48053 -0.555197,2.32489 -0.54363,0.83279 -1.052561,1.13353 -0.497364,0.28916 -1.064127,0.34699 -0.185066,0.25447 -0.254465,0.40483 -0.0694,0.15037 -0.289165,0.694 0.196632,-0.0347 0.381698,-0.0347 0.208198,0 0.566763,0.0231 0.370131,0.0347 0.439531,0.0347 0.173499,0 0.335431,-0.0347 0.09253,-0.0463 0.138799,-0.24289 0.04627,-0.19664 0.185066,-0.2776 0.138799,-0.081 0.358565,-0.081 0.161932,0 0.266031,0.0694 0.1041,0.0694 0.1041,0.23133 0,0.61303 -0.05783,0.8328 -0.05783,0.23133 -0.208199,0.42796 -0.173499,0.15037 -0.370131,0.21977 -0.196632,0.081 -0.404831,0.081 -0.312298,0 -0.960028,-0.2429 -0.64773,-0.24289 -0.983161,-0.24289 -0.138799,0.0347 -0.208199,0.11566 -0.05783,0.081 -0.219765,0.33543 h -1.110394 l 1.052561,-2.31332 q -0.404831,-0.1735 -0.832795,-0.38169 -0.416398,-0.2082 -0.821229,-0.64773 -0.404831,-0.43953 -0.659296,-1.26076 -0.254465,-0.8328 -0.254465,-1.78126 0,-0.6246 0.104099,-1.24919 0.115666,-0.63617 0.370131,-1.3186 0.254465,-0.68242 0.936895,-1.27232 0.682429,-0.60146 1.480525,-0.60146 z m 0.208198,0.11566 q -0.682429,0.0578 -1.202926,0.32387 -0.50893,0.25446 -0.844362,0.80966 -0.404831,0.5899 -0.636163,1.43426 -0.219765,0.84436 -0.219765,1.71185 0,1.388 0.416397,2.23236 0.416398,0.84436 0.867495,1.17979 0.462664,0.32387 1.249193,0.61303 -0.427964,0.98316 -0.925328,2.27862 0.185066,0.0347 0.393265,-0.16193 0.219765,-0.18507 0.358564,-0.2776 0.150366,-0.0925 0.462664,-0.0925 0.289165,0 0.532064,0.0925 0.254465,0.1041 0.728696,0.347 0.138799,0.0463 0.289165,0.0463 0.242898,0 0.43953,-0.11566 0.196633,-0.11567 0.358565,-0.33543 0.02313,-0.18507 0.05783,-0.39327 0.04627,-0.19663 0.04627,-0.2776 0,-0.17349 -0.05783,-0.32386 h -0.0694 q -0.0347,0.4511 -0.231332,0.6246 -0.185066,0.17349 -0.508931,0.17349 -0.196632,0 -0.693996,-0.10409 -0.485797,-0.0925 -0.670862,-0.0925 -0.300732,0 -0.462664,0.0925 -0.161933,0.0925 -0.393265,0.27759 -0.231332,0.19664 -0.323865,0.2429 0.474231,-0.99473 0.960028,-1.97789 0.555197,0 0.960028,-0.1041 0.404831,-0.11566 0.705563,-0.42796 0.566763,-0.694 0.855928,-1.56149 0.300732,-0.8675 0.300732,-1.78126 0,-1.45739 -0.485798,-2.55622 -0.47423,-1.11039 -1.01786,-1.50365 -0.543631,-0.39327 -1.237627,-0.39327 z m -0.115666,0.2082 q 0.451098,0 0.809662,0.32387 0.497364,0.75182 0.693996,1.64245 0.208199,0.89063 0.208199,2.00102 0,0.80967 -0.09253,1.70029 -0.08097,0.87907 -0.300731,1.388 -0.219766,0.49736 -0.740263,0.80966 -0.196632,0.0694 -0.370131,0.0694 -0.254465,0 -0.497364,-0.1041 -0.231332,-0.11567 -0.451097,-0.30073 -0.497364,-0.68243 -0.740262,-1.57306 -0.242899,-0.89063 -0.242899,-1.88536 0,-0.75183 0.138799,-1.56149 0.138799,-0.80966 0.323865,-1.38799 0.196632,-0.5899 0.50893,-0.85593 0.312299,-0.26603 0.751829,-0.26603 z m 0.983161,0.18507 q 0.786529,0.68243 1.121961,1.61932 0.346998,0.92533 0.346998,2.07042 0,0.61303 -0.09253,1.24919 -0.08097,0.63617 -0.219766,1.2145 -0.138799,0.56676 -0.370131,0.89063 -0.231332,0.31229 -0.601463,0.47423 0.462664,-0.60147 0.670863,-1.37643 0.208199,-0.78653 0.208199,-1.70029 0,-0.694 -0.09253,-1.39956 -0.09253,-0.71713 -0.266032,-1.60776 -0.173499,-0.89062 -0.705563,-1.43425 z m -1.862222,0.0116 q -0.670863,0.67087 -0.971595,1.61933 -0.289165,0.93689 -0.289165,2.02415 0,0.70556 0.1041,1.42269 0.115666,0.71713 0.358564,1.2839 0.242899,0.55519 0.728696,1.07569 -0.855928,-0.53206 -1.226059,-1.49209 -0.370132,-0.96003 -0.370132,-2.19766 0,-0.17349 0,-0.32386 0.01157,-0.16193 0.09253,-0.8328 0.08097,-0.68242 0.485797,-1.41112 0.416398,-0.7287 1.087261,-1.16823 z m 1.214493,9.51931 q 0.150366,0 0.61303,0.1041 0.462664,0.11567 0.647729,0.11567 0.173499,0 0.289165,-0.0347 0.127233,-0.0347 0.277599,-0.15037 -0.01157,0.15037 -0.161933,0.2429 -0.150366,0.0925 -0.381698,0.15037 -0.219765,0 -0.693996,-0.2082 -0.47423,-0.2082 -0.589896,-0.21977 z m -0.277599,-9.49617 q -0.277598,0 -0.47423,0.21976 -0.185066,0.2082 -0.312298,0.7634 -0.115666,0.54363 -0.219766,1.35329 -0.104099,0.79809 -0.104099,1.44582 0,0.8328 0.127232,1.57306 0.1388,0.7287 0.346998,1.24919 0.219766,0.5205 0.404831,0.70557 0.185066,0.1735 0.474231,0.1735 0.09253,0 0.289165,-0.0578 0.196632,-0.0578 0.370131,-0.2776 0.185066,-0.21976 0.300732,-0.76339 0.115666,-0.5552 0.196632,-1.22606 0.08097,-0.68243 0.08097,-1.38799 0,-0.9022 -0.150366,-1.66559 -0.138799,-0.77497 -0.451097,-1.53836 -0.150366,-0.26603 -0.370131,-0.4164 -0.219766,-0.15036 -0.508931,-0.15036 z m 6.350062,1.34172 0.0463,5.23967 q 0.1041,0.1735 0.23133,0.347 0.1388,0.1735 0.32386,0.21976 0.347,0 0.56677,-0.17349 0.21976,-0.1735 0.38169,-0.50893 0.0694,-0.4164 0.0925,-0.91377 0.0231,-0.49736 0.0231,-1.07569 0,-0.57833 -0.0116,-1.12196 -0.0116,-0.5552 -0.0231,-1.08726 l -1.02943,-0.87906 h 2.66032 v 5.56353 l 1.0063,0.78653 v 0.15037 q -0.42797,0 -1.46896,0.0231 -1.041,0.0231 -1.12196,0.0231 l -0.0925,-0.49736 q -0.33543,0.19663 -0.76339,0.347 -0.4164,0.1388 -0.80966,0.1388 -0.43953,0 -0.832798,-0.19664 -0.393265,-0.19663 -0.64773,-0.56676 -0.242898,-0.37013 -0.242898,-0.84436 l 0.08097,-4.04831 q -0.0694,-0.081 -0.462664,-0.40483 -0.393265,-0.32387 -0.508931,-0.5205 z m -2.162954,0.15037 -0.0694,0.081 0.786528,0.61303 q 0,0.7634 -0.02313,2.54466 -0.02313,1.78125 -0.02313,1.92005 0.115666,0.39327 0.439531,0.70556 0.335431,0.30074 0.75183,0.347 0.57833,0 0.92533,-0.0578 0.35856,-0.0694 0.54363,-0.21977 0.18506,-0.16193 0.34699,-0.37013 0.16194,-0.21976 0.26604,-0.21976 l 0.0347,0.86749 1.44582,0.0347 q -0.2082,-0.35856 -0.5899,-0.68243 l 0.0694,-5.37847 -0.0694,-0.1041 h -1.64245 l 0.78653,0.694 -0.0347,3.86324 q 0,0.3817 -0.1735,0.5899 -0.16193,0.19663 -0.4511,0.4858 -0.32386,0.26603 -0.78653,0.26603 -0.15036,0 -0.3123,-0.0347 -0.19663,-0.0925 -0.34699,-0.2082 -0.1388,-0.11567 -0.2082,-0.2776 -0.081,-0.96003 -0.081,-2.01259 0,-0.77496 0.0231,-1.96632 0.0347,-1.19136 0.0347,-1.39956 z m 0.601463,0.26603 0.774963,0.0347 q 0,0.72869 -0.05783,1.97789 -0.04627,1.23762 -0.04627,1.30702 0,0.5899 0.0347,1.041 0.04627,0.43953 0.150366,0.98316 0.0694,0.12723 0.231332,0.23133 0.1735,0.1041 0.28916,0.1735 -0.27759,-0.0463 -0.543625,-0.2082 -0.254466,-0.16193 -0.381698,-0.3817 l -0.150366,-0.60146 q 0,-0.4511 0.0347,-1.41113 0.0347,-0.96002 0.0347,-1.44582 v -0.1735 q 0,-0.64773 -0.0694,-1.29546 z m 3.932641,0.0347 0.0463,5.39003 q 0.2082,0.16194 0.4164,0.32387 h -0.8328 v -5.34377 l -0.32386,-0.37013 z m 3.85166,-2.94948 q 0.2082,0 0.3817,0.081 0.18506,0.081 0.42796,0.25447 0.1388,0.2082 0.1388,0.47423 0,0.11566 -0.0347,0.2776 -0.0347,0.15036 -0.23133,0.24289 -0.18507,0.081 -0.35857,0.15037 -0.0694,0.0116 -0.19663,0.0116 -0.42796,0 -0.6593,-0.19663 -0.21976,-0.2082 -0.21976,-0.53207 0,-0.1388 0.0347,-0.26603 0.28916,-0.42796 0.71713,-0.49736 z m -1.65403,2.55621 q 0.33544,0 1.1104,-0.0231 0.78653,-0.0231 0.80966,-0.0231 0.15037,0 0.33543,0.0116 0.18507,0.0116 0.28917,0.0116 0,1.27233 0.0116,2.90322 0.0231,1.63089 0.0347,2.67188 0.11567,0.1735 0.47423,0.49737 0.37013,0.31229 0.46267,0.46266 h -3.50468 q 0.081,-0.12723 0.4511,-0.46266 0.37013,-0.33544 0.47423,-0.49737 l -0.0347,-4.73074 q -0.0694,-0.0578 -0.43953,-0.32386 -0.35857,-0.26603 -0.47424,-0.49737 z m 1.388,-2.27862 q -0.18507,0.0463 -0.26604,0.18507 -0.0694,0.1388 -0.0694,0.37013 v 0.1388 q 0.0231,0.1388 0.11566,0.2082 0.0925,0.0578 0.18507,0.0925 0.0925,0.0231 0.23133,0.0231 0.30073,0 0.46266,-0.19664 0.081,-0.12723 0.11567,-0.19663 0.0347,-0.081 0.0347,-0.2082 0,-0.0463 -0.0578,-0.25446 -0.0578,-0.21977 -0.4511,-0.21977 -0.15037,0 -0.30073,0.0578 z m 0.64773,2.44056 h -1.66559 l 0.74026,0.61303 q 0,1.22606 -0.0116,2.48682 -0.0116,1.26076 -0.0231,2.52151 l -0.75183,0.5899 h 2.37115 q -0.0578,-0.16193 -0.2429,-0.3123 -0.18506,-0.15036 -0.34699,-0.28916 l -0.0116,-5.41317 z m -0.60147,-2.22079 q 0.0347,-0.0116 0.0694,-0.0116 0.0463,0 0.0578,0 0.24289,0 0.27759,0.21977 -0.0578,0.2082 -0.18506,0.347 -0.2776,0 -0.37013,-0.16194 -0.0347,-0.27759 0.15036,-0.39326 z m 0.28917,2.46369 0.0116,5.3669 0.40484,0.35856 -1.2145,0.0116 0.3817,-0.28917 0.0116,-5.18183 -0.3817,-0.25447 q 0.0925,-0.0463 0.23133,-0.0463 0.0578,0 0.26603,0.0347 0.21977,0.0231 0.28917,0 z m 7.17128,-0.4164 v 0.40483 q -0.5205,0.87906 -1.041,1.81596 -0.50893,0.93689 -1.02943,1.88535 -0.50893,0.94846 -1.00629,1.80439 0.1388,0.0463 0.26603,0.0694 0.12723,0.0116 0.33543,0.0116 0.30073,0 0.56677,-0.0347 l 0.98316,-1.65403 q 0.0694,-0.0463 0.2082,-0.0694 0.1388,-0.0231 0.2429,-0.0231 0.25446,0.0116 0.37013,0.0116 l 0.0347,2.23235 -0.1388,0.081 -4.88111,-0.081 v -0.46266 q 1.53836,-2.72972 3.08828,-5.45944 -0.0925,-0.0231 -0.26603,-0.0231 -0.1735,0 -0.2776,-0.0116 -0.28916,0 -0.53206,0.0347 l -0.8328,1.42269 -0.75182,0.0347 0.0231,-2.03572 z m -0.61303,0.1735 -3.80542,-0.0694 q -0.0463,0.16193 -0.0578,0.33543 -0.0116,0.16193 -0.0116,0.39326 0,0.15037 0.0116,0.4511 0.0116,0.30073 0.0116,0.43953 0.18506,-0.1041 0.347,-0.39326 0.1735,-0.28917 0.33543,-0.56677 0.0578,-0.27759 0.2429,-0.39326 0.19663,-0.11567 0.47423,-0.11567 0.16193,0 0.48579,0.0463 0.33544,0.0347 0.4511,0.0347 0.15037,0 0.2776,-0.0347 l 0.11567,0.0925 q -0.39327,0.75183 -0.98317,1.75813 -0.57833,1.00629 -1.15666,2.01258 -0.56676,1.0063 -0.96002,1.76969 l -0.0578,0.3817 4.14085,0.0347 0.11566,-0.0925 0.0231,-1.76969 h -0.12724 q -0.2082,0.2082 -0.56676,0.83279 -0.35856,0.6246 -0.5552,0.8328 -0.12723,-0.0231 -0.26603,-0.0231 -0.12723,0 -0.19663,0 -0.21977,0 -0.42797,0.0116 -0.20819,0.0116 -0.41639,0.0231 -0.2082,0 -0.3123,-0.0116 -0.1041,-0.0116 -0.347,-0.0694 0.4858,-0.9022 1.17979,-2.17452 0.694,-1.28389 0.89063,-1.64246 0.2082,-0.35856 0.99473,-1.66559 z m -3.66662,0.93689 q 0.0116,-0.0347 -0.0116,-0.25446 -0.0116,-0.23134 -0.0116,-0.2429 0,-0.18507 0.0463,-0.26603 0.0463,-0.0925 0.19663,-0.0925 0.0694,0 0.19663,0.0347 -0.0231,0.15037 -0.2082,0.4164 -0.1735,0.26603 -0.2082,0.40483 z m 2.91479,-0.75183 h 0.28916 q -0.4511,0.89063 -1.00629,1.88536 -0.54363,0.98316 -1.1451,2.05885 -0.60146,1.06413 -0.97159,1.78126 -0.0463,0.0347 -0.16193,0.0347 -0.1041,0 -0.2082,0 v -0.1735 q 0.47423,-0.94846 0.84436,-1.61932 0.3817,-0.67087 1.17979,-2.00103 0.7981,-1.33015 1.1798,-1.96632 z m 0.42796,5.76017 h -0.5552 l 0.56677,-1.01786 z"
           id="path2" /></g><path
         id="text4"
         style="font-size:33px;line-height:1.25;font-family:'POLYA Regular';-inkscape-font-specification:'POLYA Regular, Normal';text-align:center;letter-spacing:0px;word-spacing:0px;text-anchor:middle;fill:#ffffff;fill-opacity:1;stroke-width:0.342887"
         d="m 73.955531,106.34315 c -1.426392,0.0782 -2.853317,0.15316 -4.279376,0.23332 -0.05878,0.0119 -0.0445,0.0857 -0.09023,0.11553 -0.150487,0.18647 -0.288033,0.38437 -0.446931,0.56342 -0.06208,0.0132 -0.03653,0.0979 -0.04898,0.15407 -0.07375,0.9318 -0.152417,1.8634 -0.223109,2.79532 0.04721,0.20824 0.118612,0.41304 0.175083,0.61997 0.03339,0.10646 0.06876,0.21265 0.05537,0.3258 0.001,1.72285 -0.01852,3.44564 -0.0269,5.16847 1.29e-4,0.32609 -0.0085,0.65285 -0.0031,0.97854 0.03961,0.0562 -0.01266,0.12435 -0.01728,0.18734 -0.104369,0.44117 -0.213015,0.8818 -0.314716,1.32329 0.01826,0.19046 0.06653,0.37818 0.09621,0.56759 0.09909,0.54521 0.198185,1.09043 0.297278,1.63564 -0.273205,1.03224 -0.551469,2.06379 -0.821512,3.09645 -0.0069,0.0856 0.07146,0.14803 0.103025,0.22318 0.07282,0.13164 0.161768,0.25942 0.224647,0.39344 -0.07591,1.23426 -0.154119,2.4686 -0.228584,3.7028 0.01808,0.0389 0.02597,0.0946 0.06576,0.10939 0.368364,0.14323 0.735158,0.29322 1.1045,0.43223 1.111417,0.0771 2.222864,0.15388 3.334261,0.23127 0.2785,-0.0762 0.55606,-0.15966 0.835241,-0.23107 0.480054,0.004 0.96065,-0.0132 1.43995,0.0207 1.382619,0.069 2.765515,0.14254 4.147961,0.20877 0.885663,-0.16399 1.771326,-0.32798 2.65699,-0.49197 0.584859,0.0868 1.169276,0.17938 1.754406,0.26253 0.715698,-0.001 1.431709,0.002 2.147207,-0.002 0.09917,-0.0252 0.06331,-0.14937 0.07028,-0.22392 0.0033,-0.37638 -0.0064,-0.75337 0.0049,-1.12937 0.07423,-0.79875 0.153832,-1.59767 0.224714,-2.39632 -0.07774,-0.45568 -0.155751,-0.91131 -0.233316,-1.36701 -0.204239,-0.18765 -0.4267,-0.35523 -0.637989,-0.53511 -0.0824,-0.0549 -0.146081,-0.15379 -0.247673,-0.16606 -0.116275,0.0349 -0.245657,0.0243 -0.367769,0.0393 -1.858966,0.13428 -3.717933,0.26855 -5.576901,0.40282 -0.95894,-0.14188 -1.917452,-0.28951 -2.876658,-0.42781 -0.116766,-0.005 -0.219177,0.0683 -0.329387,0.099 -0.15354,0.0576 -0.30708,0.11517 -0.460621,0.17275 -0.0015,-1.03834 0.0031,-2.07689 -0.0023,-3.11509 -0.08695,-1.30386 -0.173902,-2.60772 -0.260853,-3.91158 0.152479,-0.87109 0.30496,-1.74218 0.457439,-2.61327 0.05178,-0.0676 -0.02287,-0.13649 -0.02995,-0.20696 -0.09762,-0.32923 -0.203353,-0.65726 -0.295916,-0.98724 -0.0014,-1.10927 0.0027,-2.21864 -0.002,-3.32785 -0.03375,-0.83868 -0.06348,-1.67793 -0.09971,-2.51626 -0.02033,-0.0719 -0.114131,-0.0472 -0.167341,-0.0785 -0.345854,-0.10017 -0.690859,-0.20631 -1.037242,-0.30277 -0.02809,-2.9e-4 -0.03413,-0.0482 -0.06885,-0.0329 z m 32.384829,0.15058 c -0.4476,0.5109 -0.89165,1.02666 -1.34147,1.53453 -0.0663,0.0336 -0.0657,0.1237 -0.10431,0.18152 -0.41804,0.94045 -0.83608,1.88091 -1.25412,2.82136 -0.1426,0.0659 -0.28521,0.13169 -0.42781,0.19756 -0.37374,0.85781 -0.74778,1.71548 -1.12164,2.57323 -0.14099,0.10544 -0.28308,0.21431 -0.42495,0.31483 -0.0943,0.17369 -0.21659,0.33431 -0.32188,0.5029 -0.13004,0.19787 -0.26008,0.39574 -0.39012,0.59361 -0.71219,-1.24986 -1.421307,-2.50198 -2.135404,-3.75043 -0.433945,-0.4665 -0.867887,-0.93299 -1.301833,-1.39949 -0.01283,-0.0828 -0.07612,-0.1533 -0.108142,-0.23143 -0.332789,-0.63629 -0.665583,-1.27258 -0.998377,-1.90887 0.08066,-0.041 -8.15e-4,-0.082 -0.03621,-0.12283 -0.365112,-0.36498 -0.729952,-0.73023 -1.095236,-1.09504 -0.185988,-0.002 -0.367785,0.0504 -0.551964,0.0718 -0.75534,0.11832 -1.51068,0.23664 -2.266019,0.35496 -0.538699,-0.14165 -1.076754,-0.28821 -1.615851,-0.4268 -0.123061,-0.0176 -0.230184,0.0521 -0.343392,0.0886 -0.518472,0.19561 -1.036944,0.39123 -1.555421,0.58683 -0.02529,0.64274 -0.06585,1.28508 -0.09706,1.92766 -0.04324,0.85676 -0.09242,1.71364 -0.131952,2.57031 0.218738,2.19894 0.437477,4.39788 0.656216,6.59682 -0.219366,0.88859 -0.438659,1.7772 -0.658069,2.66578 0.07918,0.90013 0.15285,1.80098 0.235291,2.70069 0.07468,0.43394 0.154414,0.86748 0.225943,1.30169 -0.011,1.33016 -0.02199,2.66031 -0.03303,3.99045 0.03527,0.0386 0.06896,0.0819 0.127076,0.0656 0.720447,-0.15278 1.440901,-0.3055 2.161348,-0.45826 0.36018,0.15277 0.720434,0.30537 1.08057,0.45826 0.288378,-0.009 0.575562,-0.0462 0.863476,-0.0662 0.659576,-0.0539 1.318859,-0.11468 1.978614,-0.16431 0.294056,-0.002 0.588674,0.004 0.882392,-0.003 0.09817,-0.0366 0.04944,-0.15661 0.05451,-0.23412 -0.03152,-0.62437 -0.0597,-1.24921 -0.09333,-1.87329 -0.372244,-1.39057 -0.744489,-2.78114 -1.116733,-4.17171 0.08244,-1.08036 0.160422,-2.1614 0.245457,-3.24134 0.07204,-0.72132 0.144509,-1.44261 0.216274,-2.16397 -0.109289,-0.18631 -0.219052,-0.37236 -0.328525,-0.55857 0.01389,-0.097 0.02778,-0.19395 0.04168,-0.29093 0.180461,0.29766 0.373487,0.58817 0.54592,0.89039 0.441884,0.848 0.878518,1.69979 1.323677,2.54542 0.58873,0.64946 1.169242,1.30673 1.754825,1.95918 0.135654,0.15606 0.273792,0.30987 0.432589,0.44305 0.439485,0.40132 0.87898,0.80264 1.31846,1.20396 -0.025,0.0747 0.0519,0.0512 0.0885,0.0907 0.17314,0.0143 0.35003,0.002 0.52454,0.006 0.17288,0 0.34577,0 0.51865,0 0.25106,-0.27093 0.48643,-0.55656 0.73147,-0.83312 0.51077,-0.58689 1.02133,-1.17396 1.53223,-1.76073 0.25679,-0.66796 0.51214,-1.34035 0.77002,-2.00546 0.2182,-0.34119 0.45291,-0.67687 0.67756,-1.01586 0.25331,-0.37714 0.50663,-0.75427 0.75994,-1.1314 0.12803,0.36448 0.25606,0.72896 0.38409,1.09345 -0.0365,0.04 0.0213,0.10421 -0.009,0.16128 -0.14902,1.46178 -0.29966,2.92352 -0.44767,4.38533 0.0764,1.8536 0.15638,3.70713 0.23046,5.56078 0,0.31469 0,0.6294 0,0.94409 0.27561,-8.1e-4 0.54953,-0.0416 0.82443,-0.0591 0.67453,-0.0569 1.34906,-0.11371 2.02359,-0.17057 0.55018,0.15407 1.10043,0.30794 1.65058,0.46214 0.61147,-0.15832 1.22529,-0.31855 1.83548,-0.47501 0.0556,-0.0469 0.0229,-0.13535 0.0376,-0.19972 0.074,-1.44006 0.15301,-2.87998 0.2239,-4.32012 -0.0556,-0.14199 -0.1371,-0.27795 -0.2024,-0.41768 -0.1508,-0.3016 -0.3016,-0.60319 -0.45239,-0.90479 0.29556,-1.0948 0.59112,-2.18961 0.88668,-3.28441 -0.29671,-1.40544 -0.593,-2.81098 -0.88954,-4.21646 0.14161,-0.86987 0.28951,-1.73925 0.4272,-2.60943 -0.002,-0.68296 0.003,-1.36636 -0.002,-2.04906 -0.0751,-0.51791 -0.15838,-1.0352 -0.2283,-1.55349 0,-0.77701 0,-1.55403 0,-2.33104 0.0452,-0.0328 0.0241,-0.0823 -0.009,-0.11523 -0.0229,-0.0392 -0.0937,-0.0589 -0.12094,-0.0192 -0.7194,0.14142 -1.43871,0.28334 -2.15808,0.42496 -0.34936,-0.14193 -0.69874,-0.28382 -1.04808,-0.42578 -0.59787,-0.0418 -1.19513,-0.0984 -1.79276,-0.14596 -0.34644,-0.0288 -0.69287,-0.0579 -1.03932,-0.0865 -0.006,0.007 -0.0123,0.014 -0.0184,0.0211 z m -32.250191,1.79707 c -1.236115,-0.44573 -2.47223,-0.89146 -3.708344,-1.33718 1.16522,-0.13178 2.330441,-0.26356 3.495662,-0.39533 0.07089,0.5775 0.141788,1.155 0.212682,1.73251 z m 0.966364,-1.4234 c 0.01866,0.63675 0.03732,1.2735 0.05598,1.91026 -0.317263,-0.72595 -0.623795,-1.45666 -0.948391,-2.17935 0.0201,-0.0168 0.116133,0.0335 0.16464,0.0418 0.242591,0.0758 0.485181,0.15153 0.727772,0.22729 z m 33.885447,0.005 c -0.56499,0.72233 -1.1299,1.4447 -1.68208,2.1769 -0.0955,0.1253 -0.19093,0.2506 -0.2864,0.37589 -0.16633,-0.91592 -0.34272,-1.83009 -0.4891,-2.7495 0.0162,-0.0396 0.12212,0.004 0.17408,-0.003 0.76117,0.0666 1.52233,0.13309 2.2835,0.19964 z m -38.946292,-0.0715 c -0.0946,-0.0648 -0.01668,-0.0632 0.05772,-0.063 0.266924,-0.0133 0.53385,-0.0267 0.800775,-0.04 -0.286164,0.0343 -0.572327,0.0686 -0.858491,0.10297 z m 36.562052,1.31797 c 0.0692,0.43434 0.13823,0.86871 0.20737,1.30306 -0.52936,-0.43946 -1.05871,-0.87892 -1.58806,-1.31838 0.37939,-0.43932 0.75879,-0.87865 1.13818,-1.31797 0.0808,0.44443 0.16167,0.88886 0.24251,1.33329 z m -36.774325,-1.24175 c -0.0655,0.0402 -0.130883,0.0805 -0.196338,0.12074 0.04406,-0.0616 0.08812,-0.12326 0.132186,-0.18489 0.02138,0.0214 0.04277,0.0428 0.06415,0.0641 z m 24.342351,1.16658 c -0.287495,0.40001 -0.574614,0.80036 -0.861966,1.2005 -0.179736,-0.49275 -0.372664,-0.98085 -0.543448,-1.47676 -0.0521,-0.15635 -0.104198,-0.3127 -0.156296,-0.46904 0.810753,-0.13178 1.621501,-0.26356 2.432253,-0.39533 -0.290183,0.38021 -0.580361,0.76042 -0.870543,1.14063 z m -1.803811,-0.75164 c -0.176111,0.54774 -0.352222,1.09549 -0.528333,1.64323 -0.273907,-0.67496 -0.547813,-1.34991 -0.821716,-2.02487 0.450018,0.12721 0.900031,0.25443 1.350049,0.38164 z m 17.770675,-0.01 c -0.24902,0.51414 -0.49315,1.03068 -0.76184,1.53496 -0.0318,0.0615 -0.0636,0.12298 -0.0954,0.18448 0,-0.69703 0,-1.39405 0,-2.09107 0.28576,0.12388 0.57152,0.24776 0.85727,0.37163 z m 1.24892,0.76145 c -0.14352,0.18108 -0.29126,0.3688 -0.4364,0.55244 -0.19075,-0.42779 -0.35212,-0.86798 -0.52997,-1.30122 0.61033,-0.12803 1.22066,-0.25606 1.83099,-0.38409 -0.28821,0.37762 -0.57642,0.75524 -0.86462,1.13287 z m -15.190303,-0.17959 c -0.873134,0.43653 -1.746263,0.87306 -2.619397,1.30959 0.565515,-0.75409 1.131034,-1.50818 1.696549,-2.26227 0.307619,0.31756 0.615233,0.63512 0.922848,0.95268 z m -7.209727,3.40066 c 0.05986,-1.24681 0.119725,-2.49362 0.179585,-3.74042 0.498776,-0.17966 0.997555,-0.35931 1.496331,-0.53896 -0.55864,1.42646 -1.117276,2.85292 -1.675916,4.27938 z m -18.485941,-2.96059 c -0.359237,-0.31429 -0.718473,-0.62858 -1.07771,-0.94287 0.179653,-0.10774 0.359305,-0.21547 0.538957,-0.32321 0.179584,0.42203 0.359169,0.84405 0.538753,1.26608 z m 41.895031,0.78719 c -0.43952,-0.10871 -0.86867,-0.25334 -1.30142,-0.38553 0.29502,-0.38918 0.58218,-0.78465 0.88216,-1.16987 0.13976,-0.16453 0.27951,-0.32905 0.41926,-0.49358 0,0.68299 0,1.36599 0,2.04898 z m -38.559136,-0.72202 c -1.007565,0.0698 -2.01513,0.13961 -3.022695,0.20942 -0.209481,-0.50872 -0.418962,-1.01744 -0.628443,-1.52616 1.217046,0.43891 2.434092,0.87783 3.651138,1.31674 z m 1.204175,0.59535 c -0.229435,-0.19545 -0.458869,-0.3909 -0.688304,-0.58636 -0.05101,-0.44191 -0.102016,-0.88382 -0.153024,-1.32573 0.280442,0.63736 0.560885,1.27472 0.841328,1.91209 z m 34.030301,0.39513 c -0.35175,0.18067 -0.70349,0.36134 -1.05524,0.54202 0.35175,-0.86496 0.70349,-1.72992 1.05524,-2.59488 0,0.68428 0,1.36857 0,2.05286 z m -18.108594,3.87464 c -0.659975,-0.46411 -1.31995,-0.92822 -1.979921,-1.39234 0.587786,-1.50552 1.175572,-3.01105 1.763358,-4.51657 0.07219,1.96964 0.144374,3.93928 0.216563,5.90891 z m 0.791887,-3.99927 c -0.191719,0.99087 -0.390756,1.98043 -0.577881,2.97212 -0.01719,0.0996 -0.03438,0.1992 -0.05158,0.29881 -0.05749,-1.71839 -0.116617,-3.43672 -0.169981,-5.15524 0.266482,0.6281 0.532964,1.25621 0.799446,1.88431 z m 16.563227,-0.55265 c -0.17883,0.42094 -0.35767,0.84188 -0.5365,1.26281 -0.22501,-0.10317 -0.45002,-0.20634 -0.67503,-0.30952 0.56829,-0.73343 1.13197,-1.47042 1.69737,-2.20609 -0.16194,0.4176 -0.32389,0.8352 -0.48584,1.2528 z m 2.51214,0.0223 c -0.47589,0.18449 -0.95179,0.36898 -1.42768,0.55347 0.2914,-0.60216 0.58281,-1.20431 0.87422,-1.80647 0.18449,0.41767 0.36897,0.83534 0.55346,1.253 z m -17.686295,0.61803 c -0.386887,-0.0676 -0.773773,-0.13525 -1.16066,-0.20288 0.169916,-0.53255 0.342202,-1.06433 0.520981,-1.59399 0.213224,0.59896 0.426451,1.19791 0.639679,1.79687 z m -22.515658,-0.65378 c -0.508652,0.43891 -1.017304,0.87783 -1.525956,1.31675 0.07975,-0.81797 0.159495,-1.63594 0.239242,-2.45391 0.428904,0.37905 0.857809,0.7581 1.286714,1.13716 z m 21.537446,6.98765 c 0.19222,-1.01963 0.380517,-2.03999 0.589155,-3.05641 0.206914,-1.03447 0.413825,-2.06893 0.62074,-3.1034 0.917126,-0.4637 1.834252,-0.92741 2.751377,-1.39111 -1.320426,2.51697 -2.640849,5.03394 -3.961272,7.55092 z m 5.173619,-5.58734 c -0.635118,0.50402 -1.270236,1.00804 -1.905349,1.51206 0.322595,-1.14915 0.645194,-2.2983 0.967793,-3.44745 0.312519,0.64513 0.625037,1.29026 0.937556,1.93539 z m 9.445848,-0.42577 c -0.22058,0.10113 -0.44116,0.20226 -0.66174,0.30339 -0.25375,-0.48787 -0.50525,-0.97139 -0.74776,-1.46426 0.46983,0.38696 0.93967,0.77391 1.4095,1.16087 z m -31.664446,1.66202 c -1.356859,-0.85318 -2.713718,-1.70636 -4.070577,-2.55954 1.048494,-0.072 2.096989,-0.14396 3.145483,-0.21595 0.308365,0.92516 0.616729,1.85033 0.925094,2.77549 z m 30.367926,-2.11906 c 0.14662,0.29318 0.29325,0.58636 0.43987,0.87954 -0.2752,0.18642 -0.57077,0.3402 -0.85522,0.51178 0.0379,-0.6817 0.0759,-1.36339 0.1138,-2.04509 0.10051,0.21792 0.20103,0.43585 0.30155,0.65377 z m -0.59637,1.48101 c -0.32246,0.0853 -0.64492,0.17067 -0.96738,0.256 0.34139,-0.76819 0.68279,-1.53638 1.02418,-2.30457 -0.0189,0.68286 -0.0379,1.36572 -0.0568,2.04857 z m -9.706946,1.13737 c -0.867892,1.16025 -1.735779,2.3205 -2.603667,3.48075 1.150849,-2.18845 2.301702,-4.3769 3.452555,-6.56535 -0.282965,1.0282 -0.565927,2.0564 -0.848888,3.0846 z M 75.15419,109.38622 c 0,0.52391 0,1.04782 0,1.57172 -0.239786,-0.72807 -0.479572,-1.45615 -0.719359,-2.18422 0.239787,0.20417 0.479573,0.40834 0.719359,0.6125 z m -3.905498,0.14036 c 0.362505,0.46309 0.725011,0.92619 1.087516,1.38928 -1.05651,-0.25138 -2.111941,-0.50097 -3.166117,-0.76083 0.507425,-0.44648 1.014852,-0.89295 1.522278,-1.33943 0.185441,0.23699 0.370882,0.47399 0.556323,0.71098 z m 40.582578,-0.37592 c 0.14444,0.0362 0.28888,0.0723 0.43333,0.10849 -0.54992,0.54992 -1.09985,1.09984 -1.64977,1.64976 0.11789,-0.66828 0.23577,-1.33656 0.35365,-2.00485 0.2876,0.0822 0.57519,0.1644 0.86279,0.2466 z m -1.19131,0.59453 c -0.08,0.40934 -0.15975,0.81872 -0.23965,1.22808 -0.37634,-0.49645 -0.75138,-0.99388 -1.13083,-1.48796 0.50593,-0.1885 1.01186,-0.37701 1.51779,-0.56551 -0.0491,0.27513 -0.0982,0.55026 -0.14731,0.82539 z m -35.858831,1.61973 c -0.713911,-0.12544 -1.427821,-0.25089 -2.141731,-0.37633 -0.509197,-0.65473 -1.018394,-1.30946 -1.527591,-1.96419 1.223107,0.78017 2.446215,1.56035 3.669322,2.34052 z m 18.280819,-1.86245 c -0.612167,1.0959 -1.224334,2.19179 -1.8365,3.28768 0.217244,-1.15514 0.434491,-2.31028 0.651735,-3.46542 0.394919,0.0592 0.789842,0.1185 1.184765,0.17774 z m 19.512992,1.17476 c -0.55753,0.24757 -1.11108,0.50457 -1.67112,0.74618 -0.28865,0.11698 -0.5773,0.23396 -0.86595,0.35094 0.78362,-0.78101 1.55387,-1.57537 2.33113,-2.36279 0.0686,0.42189 0.13729,0.84378 0.20594,1.26567 z m -2.71501,-0.13116 c 0.14817,0.19712 0.29593,0.3946 0.44395,0.59187 -1.03848,0.26471 -2.07697,0.52942 -3.11545,0.79413 0.52871,-0.64838 1.04958,-1.30324 1.58349,-1.94731 0.11348,-0.13475 0.22697,-0.26949 0.34045,-0.40424 0.24919,0.32185 0.49837,0.6437 0.74756,0.96555 z m -2.57405,0.9731 c 0.1958,-0.44273 0.39159,-0.88546 0.58738,-1.32819 0.29794,-0.15323 0.59589,-0.30645 0.89384,-0.45968 -0.49374,0.59595 -0.98748,1.19191 -1.48122,1.78787 z m 0.36019,-1.38233 c -0.44797,0.56933 -0.89594,1.13866 -1.34392,1.70799 0.22399,-0.68129 0.44798,-1.36258 0.67196,-2.04387 0.22399,0.11196 0.44797,0.22392 0.67196,0.33588 z m -1.50491,1.57744 c 0,-0.52077 0,-1.04155 0,-1.56232 0.20162,-0.10135 0.40282,-0.20358 0.60985,-0.29359 -0.20328,0.61864 -0.40657,1.23728 -0.60985,1.85591 z m -14.255191,4.16354 c -0.250276,-0.82063 -0.500551,-1.64125 -0.750823,-2.46188 0.62061,-1.13103 1.241224,-2.26207 1.861834,-3.3931 -0.370339,1.95166 -0.740677,3.90332 -1.111011,5.85498 z m 14.045781,-3.8867 c -0.22873,-0.31314 -0.46714,-0.61962 -0.68974,-0.93697 -0.0554,-0.087 -0.11073,-0.17392 -0.1661,-0.26088 0.28528,-0.18067 0.57056,-0.36134 0.85584,-0.54202 0,0.57996 0,1.15991 0,1.73987 z m -7.289204,-0.45193 c -0.405888,0.62361 -0.811775,1.24722 -1.217662,1.87083 0.03271,-0.95412 0.06767,-1.90816 0.08387,-2.86274 0.0016,-0.0752 0.0033,-0.1505 0.005,-0.22575 0.37626,0.40589 0.752525,0.81178 1.128786,1.21766 z m -3.331197,4.08938 c 0,-1.23564 0,-2.47128 0,-3.70692 0.632939,-0.51233 1.265873,-1.02466 1.898812,-1.53699 -0.632939,1.74797 -1.265873,3.49594 -1.898812,5.24391 z m -23.082401,-4.51168 c -0.424978,0.15846 -0.839921,0.3416 -1.257907,0.5173 -0.535348,-0.41113 -1.070695,-0.82226 -1.606043,-1.23339 0.95465,0.2387 1.9093,0.4774 2.86395,0.71609 z m -1.999944,0.20533 c -0.311225,-0.14083 -0.622449,-0.28167 -0.933674,-0.4225 -0.05189,-0.14077 -0.103787,-0.28153 -0.155681,-0.4223 0.363118,0.2816 0.726237,0.5632 1.089355,0.8448 z m 26.980135,2.39507 c -0.576276,0.66413 -1.152552,1.32826 -1.728831,1.99239 0.55064,-1.46624 1.074106,-2.94247 1.610096,-4.41414 0.06893,-0.1903 0.137861,-0.38061 0.206792,-0.57091 -0.02937,0.99755 -0.0587,1.99511 -0.08806,2.99266 z m 9.627681,-1.70513 c -0.16944,0.0404 -0.33887,0.0808 -0.50831,0.12115 0.35508,-0.44382 0.71016,-0.88764 1.06525,-1.33145 -0.18565,0.40343 -0.37129,0.80686 -0.55694,1.2103 z m 5.74425,0.60454 c -0.88696,-0.19144 -1.77392,-0.38287 -2.66088,-0.5743 0.88696,-0.38308 1.77392,-0.76615 2.66088,-1.14922 0,0.57451 0,1.14901 0,1.72352 z m -8.86461,1.35597 c 0.0288,-0.93047 0.0576,-1.86095 0.0864,-2.79142 0.32614,-0.0863 0.65228,-0.17257 0.97841,-0.25885 -0.35494,1.01675 -0.70989,2.03351 -1.06484,3.05027 z m 2.38813,1.2669 c -0.57767,-0.16166 -1.15867,-0.31193 -1.73414,-0.48114 -0.21657,-0.0667 -0.43313,-0.13334 -0.64969,-0.20001 0.39936,-1.1599 0.793,-2.32185 1.19595,-3.48046 0.0222,-0.0489 0.036,0.10174 0.0548,0.13589 0.3777,1.34191 0.75539,2.68381 1.13309,4.02572 z m -35.459825,-3.52999 c -0.445998,0.0836 -0.891996,0.16726 -1.337994,0.25089 0,-0.27881 0,-0.55762 0,-0.83643 0.445998,0.19518 0.891996,0.39036 1.337994,0.58554 z m 4.001727,0.69832 c -0.529131,-0.0986 -1.058006,-0.19839 -1.583068,-0.31709 -0.582165,-0.12531 -1.164329,-0.25061 -1.746494,-0.37591 0.429177,-0.17169 0.858354,-0.34337 1.287531,-0.51506 0.680677,0.40269 1.361354,0.80537 2.042031,1.20806 z m 28.980898,-1.10713 c -0.0227,0.61905 -0.0458,1.23809 -0.0687,1.85713 -0.0597,-0.59704 -0.11945,-1.19409 -0.17917,-1.79114 0.0826,-0.045 0.16521,-0.09 0.24782,-0.13505 0,0.023 0,0.046 0,0.069 z m 2.30436,1.00743 c 0.0579,0.75454 0.12182,1.50884 0.18203,2.26329 -0.31415,-1.104 -0.6283,-2.20799 -0.94246,-3.31199 0.25348,0.34957 0.50695,0.69913 0.76043,1.0487 z m -30.77756,-0.69505 c 0,0.29223 0,0.58445 0,0.87668 -0.688168,-0.40535 -1.376336,-0.81069 -2.064504,-1.21603 0.688168,0.11312 1.376336,0.22623 2.064504,0.33935 z m 34.36475,0.39145 c -0.6134,0 -1.22678,0 -1.84018,0 0.82369,-0.2103 1.64738,-0.4206 2.47108,-0.63089 -0.2103,0.21029 -0.4206,0.42059 -0.6309,0.63089 z m -6.03293,2.4582 c -0.39362,-0.21656 -0.78725,-0.43313 -1.18088,-0.64969 0.3051,-0.70846 0.61019,-1.41692 0.91529,-2.12539 0.0885,0.92503 0.17706,1.85005 0.26559,2.77508 z m -2.76609,0.70342 c -1.081115,-0.48393 -2.162231,-0.96786 -3.243346,-1.45179 0.422163,-0.6693 0.844325,-1.33861 1.266488,-2.00791 0.658953,1.15323 1.317908,2.30647 1.976858,3.4597 z m -29.647952,-2.87968 c -0.439869,-0.0677 -0.879738,-0.13538 -1.319608,-0.20308 0.381302,-0.0746 0.762604,-0.14914 1.143905,-0.22371 0.05857,0.14226 0.117135,0.28453 0.175703,0.42679 z m 2.799185,0.17775 c -0.857809,-0.0429 -1.715618,-0.0858 -2.573428,-0.12872 -0.06179,-0.15481 -0.123958,-0.30948 -0.185509,-0.46438 0.919646,0.1977 1.839292,0.3954 2.758937,0.5931 z m 16.250436,0.43067 c 0.263529,0.18977 0.527111,0.37946 0.79066,0.5692 -0.462888,1.51226 -0.925777,3.02453 -1.388661,4.5368 -0.195523,-1.97536 -0.391042,-3.95072 -0.586564,-5.92608 0.394857,0.27336 0.789711,0.54672 1.184565,0.82008 z m 5.013242,3.19309 c -1.007978,0.0312 -2.015951,0.0624 -3.023925,0.0936 1.007974,-1.34052 2.015947,-2.68103 3.023925,-4.02155 0,1.30933 0,2.61865 0,3.92798 z m 14.207589,-3.90693 c -0.96766,0.96766 -1.93532,1.93531 -2.90297,2.90297 0.19347,-0.96766 0.38695,-1.93531 0.58043,-2.90297 0.77418,0 1.54836,0 2.32254,0 z m -3.03312,2.44308 c -0.055,-0.74183 -0.10991,-1.48366 -0.16487,-2.22549 0.21983,-0.055 0.43967,-0.10992 0.6595,-0.16488 -0.16488,0.79679 -0.32975,1.59358 -0.49463,2.39037 z m 6.2638,-1.79686 c -0.13293,0.78719 -0.26587,1.57437 -0.39881,2.36156 -0.71026,-0.87957 -1.42919,-1.7522 -2.12471,-2.64356 -0.0791,-0.10029 -0.15831,-0.20059 -0.23746,-0.30089 0.92032,0.1943 1.84065,0.38859 2.76098,0.58289 z m -41.421045,-0.32301 c 0.182383,0.52905 0.364588,1.05813 0.547947,1.58684 -0.721197,-0.6155 -1.442395,-1.23101 -2.163592,-1.84651 0.538548,0.0866 1.077097,0.17311 1.615645,0.25967 z m 0.587787,1.89779 c -0.469221,0.5203 -0.938443,1.0406 -1.407663,1.56089 -0.316265,-1.19348 -0.632529,-2.38696 -0.948794,-3.58044 0.785486,0.67318 1.570971,1.34637 2.356457,2.01955 z m 37.190088,-0.48338 c -0.10625,0.31914 -0.21277,0.63824 -0.31913,0.95737 -0.48578,0.11425 -0.98074,0.18042 -1.47199,0.26603 -0.18749,0.0312 -0.37499,0.0625 -0.56248,0.0937 0.9285,-0.92849 1.857,-1.85699 2.7855,-2.78549 -0.14397,0.48944 -0.28794,0.97889 -0.4319,1.46834 z m 2.5767,0.70996 c 0.17996,0.23 0.35999,0.45995 0.53997,0.68994 -0.43886,0.10916 -0.87598,0.226 -1.32075,0.30933 -0.13834,0.0286 -0.27668,0.0572 -0.41502,0.0858 -0.19273,-1.08547 -0.38546,-2.17094 -0.57819,-3.25642 0.59133,0.72379 1.18266,1.44757 1.77399,2.17136 z m -1.38111,1.04583 c -0.44254,-0.24711 -0.87118,-0.51829 -1.30776,-0.77574 0.24762,-0.8021 0.49524,-1.60421 0.74286,-2.40631 0.1883,1.06069 0.3766,2.12137 0.5649,3.18205 z m -35.247142,-2.94587 c -0.976423,0.5176 -1.95236,1.03611 -2.927898,1.55537 -0.182761,-0.5931 -0.384671,-1.17997 -0.579818,-1.76908 1.169239,0.0712 2.338477,0.14247 3.507716,0.21371 z m -4.698202,3.4074 c -0.05461,0.0968 -0.153634,0.16155 -0.226311,0.24531 -0.226322,0.22632 -0.452644,0.45265 -0.678966,0.67897 0.0097,-1.3984 0.01934,-2.7968 0.02901,-4.19521 0.292088,1.09031 0.584177,2.18062 0.876265,3.27093 z m 4.158428,-2.09576 c -0.369989,0.65543 -0.740143,1.31096 -1.110195,1.96644 -0.282522,-0.38232 -0.552745,-0.77405 -0.857082,-1.13969 -0.11202,-0.14006 -0.22404,-0.28012 -0.33606,-0.42019 0.551169,-0.29579 1.095973,-0.60368 1.651584,-0.89104 0.438649,-0.22362 0.877299,-0.44725 1.315949,-0.67087 -0.221399,0.38512 -0.442797,0.77023 -0.664196,1.15535 z m 1.137571,-0.34916 c -0.580363,0.60801 -1.160726,1.21602 -1.741089,1.82404 0.497483,-0.87518 0.994967,-1.75035 1.49245,-2.62553 0.08288,0.26716 0.165759,0.53433 0.248639,0.80149 z m 15.842845,1.01867 c 0.160935,0.50472 0.322143,1.0094 0.48318,1.5141 -0.710419,0.65942 -1.416936,1.32306 -2.130083,1.97952 0.44634,-1.49116 0.892675,-2.98232 1.339015,-4.47347 0.102631,0.32661 0.205257,0.65323 0.307888,0.97985 z m 6.338772,1.05523 c -0.722149,0.0902 -1.444302,0.18047 -2.166451,0.27071 0.558115,-0.63833 1.107342,-1.28426 1.653567,-1.93277 0.04061,-0.048 0.08123,-0.096 0.121847,-0.144 0.130343,0.60202 0.26069,1.20404 0.391037,1.80606 z m 2.997768,-0.39472 c -0.60665,0.15909 -1.213296,0.31818 -1.819948,0.47726 -0.407724,-0.62653 -0.815448,-1.25307 -1.223172,-1.87961 1.014372,0.46745 2.028748,0.9349 3.04312,1.40235 z m 2.29415,-1.00232 c -0.32879,-0.0765 -0.65759,-0.15295 -0.98638,-0.22943 0.0706,-0.0565 0.14124,-0.11305 0.21186,-0.16958 0.25817,0.13301 0.51635,0.26601 0.77452,0.39901 z m -27.91749,1.91026 c -0.527312,-0.0597 -1.054624,-0.11932 -1.581935,-0.17897 0.656637,-0.68647 1.313273,-1.37294 1.96991,-2.0594 -0.129325,0.74612 -0.25865,1.49224 -0.387975,2.23837 z m 22.941838,-1.39091 c 0.199266,0.31878 0.398531,0.63757 0.597797,0.95635 -0.24531,-0.0272 -0.490641,-0.0543 -0.735907,-0.0819 -0.110769,-0.49313 -0.218873,-0.9791 -0.313578,-1.47457 -0.02656,-0.0957 -0.01576,-0.10217 0.03425,-0.0152 0.139153,0.2051 0.278301,0.4102 0.417454,0.6153 z m 4.378672,-0.4695 c 0.3749,0.0937 0.7498,0.18742 1.1247,0.28113 -0.42185,1.12566 -0.84965,2.24916 -1.26777,3.37617 -0.0237,0.0673 -0.0475,0.13469 -0.0712,0.20203 -0.10011,-1.32486 -0.19275,-2.65031 -0.3034,-3.97435 0.17257,0.0383 0.34514,0.0767 0.51771,0.11502 z m -0.43456,3.54531 c -0.29263,-0.84196 -0.56001,-1.69244 -0.84112,-2.53829 0.196,-0.31728 0.39199,-0.63457 0.58799,-0.95185 0.0844,1.16338 0.16875,2.32676 0.25313,3.49014 z m -29.189696,-2.31595 c 0.121124,0.17182 0.242459,0.3435 0.363664,0.51526 -0.76989,0.56722 -1.539781,1.13444 -2.309671,1.70166 0.230158,-0.62083 0.459808,-1.24183 0.672547,-1.8689 0.160456,-0.46121 0.320913,-0.92243 0.481369,-1.38364 0.26403,0.34521 0.528061,0.69042 0.792091,1.03562 z m 33.295826,-0.2088 c -0.71045,0.49376 -1.42218,0.98558 -2.14164,1.46614 -0.0908,0.0613 -0.18162,0.12256 -0.27243,0.18383 0.0305,-0.77411 0.044,-1.54898 0.0911,-2.32234 0.77432,0.22413 1.54863,0.44825 2.32295,0.67237 z m -35.430406,2.28087 c -0.06599,-0.50879 -0.131981,-1.01758 -0.197972,-1.52637 0.409268,-0.45745 0.829299,-0.9051 1.244014,-1.35761 -0.348681,0.96133 -0.697361,1.92265 -1.046042,2.88398 z m 39.463396,-1.87226 c -1.01064,0.60032 -2.02127,1.20064 -3.0319,1.80096 0.57042,-0.85053 1.14085,-1.70105 1.71126,-2.55157 0.44021,0.2502 0.88042,0.50041 1.32064,0.75061 z m -2.93056,1.28365 c -0.1277,0.18254 -0.25553,0.36502 -0.38328,0.54754 -0.12129,-0.72801 -0.24258,-1.45601 -0.36387,-2.18402 0.56837,-0.11259 1.13308,-0.24481 1.7062,-0.33176 0.1285,-0.0214 0.25699,-0.0428 0.38548,-0.0642 -0.44818,0.67748 -0.89635,1.35495 -1.34453,2.03243 z m -3.72877,0.10665 c -0.36217,0.3621 -0.72433,0.7242 -1.0865,1.08629 0.39002,-1.03079 0.78004,-2.06157 1.17006,-3.09236 -0.0279,0.66869 -0.0557,1.33738 -0.0836,2.00607 z m -1.51145,1.17088 c -0.96385,-0.80149 -1.927696,-1.60298 -2.891539,-2.40447 0.628691,-0.16379 1.256109,-0.33253 1.887169,-0.48707 0.33479,0.96385 0.66958,1.92769 1.00437,2.89154 z m 9.58722,0.20532 c -1.47004,-0.23978 -2.94009,-0.47957 -4.41013,-0.71936 1.67857,-0.77159 3.35714,-1.54318 5.03572,-2.31478 -0.20853,1.01138 -0.41706,2.02276 -0.62559,3.03414 z m -5.31153,-2.0408 c -0.5476,0.3559 -1.09521,0.7118 -1.64282,1.0677 0.54761,-0.65705 1.09522,-1.3141 1.64282,-1.97114 0,0.30114 0,0.60229 0,0.90344 z m 2.22101,0.47419 c 0.6345,-0.37197 1.26901,-0.74394 1.90351,-1.11592 0.33267,-0.07 0.6655,-0.13917 0.99701,-0.21452 -0.96684,0.44348 -1.93368,0.88696 -2.90052,1.33044 z m -4.33209,0.8448 c -0.10628,-0.16952 -0.21074,-0.34032 -0.34362,-0.49081 -0.0403,-0.0506 -0.11268,-0.10597 -0.0154,-0.13608 0.68703,-0.47008 1.37406,-0.94016 2.06108,-1.41024 -0.56736,0.67905 -1.13471,1.35809 -1.70207,2.03713 z m 8.93406,1.53209 c -0.43571,-0.24755 -0.87143,-0.4951 -1.30714,-0.74265 0.18816,-0.94069 0.37633,-1.88138 0.56449,-2.82207 0.24755,1.18824 0.4951,2.37648 0.74265,3.56472 z m -14.300752,-3.39535 c -0.04905,0.45226 -0.05551,0.90778 -0.0846,1.36157 -0.0089,0.16928 -0.01784,0.33855 -0.02676,0.50782 -0.223239,-0.64172 -0.446474,-1.28345 -0.669714,-1.92517 0.260352,0.0186 0.520709,0.0372 0.781061,0.0558 z m -2.819209,1.02173 c -0.161538,-0.26608 -0.323076,-0.53215 -0.484609,-0.79822 0.665351,-0.0855 1.330707,-0.17107 1.996058,-0.25661 -0.503814,0.35161 -1.007631,0.70322 -1.511449,1.05483 z m 1.475696,1.02602 c -0.06853,0.47059 -0.137311,0.94116 -0.205941,1.41175 -0.393966,-0.74755 -0.787935,-1.49511 -1.181901,-2.24266 0.555504,-0.3939 1.111011,-0.7878 1.666515,-1.1817 -0.09289,0.67087 -0.18578,1.34174 -0.278673,2.01261 z m 4.392975,0.52711 c -0.99872,-0.10195 -1.997427,-0.2039 -2.996139,-0.30585 0.03906,-0.71322 0.08124,-1.42641 0.122173,-2.1401 0.95799,0.81532 1.915976,1.63063 2.873966,2.44595 z m -8.287438,-1.44076 c -0.412836,-0.2688 -0.825667,-0.5376 -1.238499,-0.8064 0.892814,-0.0287 1.785625,-0.0575 2.678439,-0.0862 -0.479979,0.29754 -0.959961,0.59508 -1.43994,0.89261 z m -18.535794,-0.68177 c -0.611689,0.81225 -1.223379,1.6245 -1.835069,2.43675 0.06688,-0.75258 0.124077,-1.50611 0.197193,-2.25807 0.01443,-0.12977 0.02885,-0.25955 0.04327,-0.38932 0.531535,0.0702 1.063068,0.14043 1.594602,0.21064 z m 23.606444,1.88472 c -0.38103,0.38103 -0.76206,0.76205 -1.14309,1.14308 0.146489,-1.07485 0.292977,-2.1497 0.439461,-3.22455 0.234542,0.69382 0.469088,1.38765 0.703629,2.08147 z m -3.505878,-1.70677 c -0.287185,0.0933 -0.574369,0.1866 -0.861554,0.2799 0.308702,-0.19382 0.617408,-0.38764 0.926115,-0.58146 -0.02151,0.10052 -0.04304,0.20104 -0.06456,0.30156 z m -22.029411,1.0581 c -0.04157,0.46772 -0.08323,0.93544 -0.12483,1.40316 -0.705534,-0.32722 -1.411069,-0.65445 -2.116603,-0.98168 0.549983,-0.41536 1.089252,-0.84519 1.65389,-1.24076 0.236028,-0.16943 0.472056,-0.33887 0.708083,-0.5083 -0.04018,0.44253 -0.08036,0.88505 -0.12054,1.32758 z m 20.367389,-0.39738 c -0.169875,0.67261 -0.352544,1.34211 -0.4995,2.02027 -0.02114,0.0924 -0.04224,0.18476 -0.06336,0.27714 -0.24564,-1.04154 -0.491285,-2.08309 -0.736925,-3.12464 0.433261,0.27574 0.866523,0.55149 1.299789,0.82723 z m -1.539031,5.22347 c -0.737406,-1.33983 -1.474813,-2.67966 -2.212219,-4.0195 0.737406,-0.67509 1.474813,-1.35018 2.212219,-2.02528 0,2.01493 0,4.02986 0,6.04478 z m -21.36828,-4.46202 c -0.454784,0.17413 -0.909567,0.34827 -1.36435,0.52241 0.387022,-0.69662 0.774044,-1.39323 1.161066,-2.08984 0.06776,0.52247 0.135523,1.04495 0.203284,1.56743 z m 35.967729,-1.36313 c -0.019,-0.0644 -0.0475,-0.12742 -0.038,-0.19613 0.0127,0.0654 0.0253,0.13076 0.038,0.19613 z m -36.910394,0.71384 c -0.145044,0.25989 -0.29041,0.51961 -0.435578,0.77943 0.06837,-0.29624 0.136748,-0.59248 0.205122,-0.88873 0.197699,-0.1977 0.395399,-0.3954 0.593098,-0.5931 -0.120881,0.23414 -0.241761,0.46827 -0.362642,0.7024 z m 25.760229,-0.25885 c -0.394719,0 -0.789434,0 -1.184153,0 0.330293,-0.11278 0.660586,-0.22555 0.990879,-0.33833 0.06443,0.11278 0.128848,0.22555 0.193274,0.33833 z m -20.630533,0.80027 c -0.137619,0.60273 -0.274975,1.20554 -0.412493,1.8083 -0.365365,-0.17774 -0.730731,-0.35549 -1.096097,-0.53324 0.479862,-0.66276 0.951479,-1.3316 1.436774,-1.99037 0.10498,-0.13994 0.209959,-0.27988 0.314939,-0.41982 -0.08104,0.37838 -0.162082,0.75675 -0.243123,1.13513 z m 30.073728,0.80271 c -0.1637,-0.2417 -0.334,-0.47862 -0.51179,-0.71016 0.57785,-0.36946 1.15569,-0.73891 1.73353,-1.10836 -0.40724,0.60617 -0.81449,1.21235 -1.22174,1.81852 z m -29.455093,1.42973 c -0.287389,-0.11489 -0.574778,-0.22978 -0.862167,-0.34466 0.220309,-0.93865 0.440618,-1.8773 0.660927,-2.81594 0.06708,1.05353 0.13416,2.10706 0.20124,3.1606 z m 16.926277,-2.37158 c 0.173797,0.72908 0.348772,1.46027 0.523021,2.19016 -0.23672,0.75749 -0.473445,1.51499 -0.710166,2.27248 0,-1.74402 0,-3.48803 0,-5.23205 0.06238,0.25647 0.124763,0.51294 0.187145,0.76941 z m 3.154267,-0.45151 c -0.04978,0.64601 -0.09956,1.29203 -0.149348,1.93804 -0.50688,-0.64601 -1.013761,-1.29203 -1.520641,-1.93804 0.556664,0 1.113324,0 1.669989,0 z m 8.439649,0.43476 c 0.0324,0.0569 0.0648,0.11373 0.0973,0.1706 -0.47596,0.16473 -0.95193,0.32947 -1.42789,0.49421 0.34725,-0.35631 0.6945,-0.71262 1.04175,-1.06893 0.0963,0.13471 0.19259,0.26941 0.28889,0.40412 z m -8.741407,1.70922 c -0.581098,0.10167 -1.162331,0.20237 -1.739718,0.32368 -0.119839,0.0239 -0.239678,0.0479 -0.359517,0.0718 0.19266,-0.81129 0.385319,-1.62259 0.577978,-2.43389 0.507085,0.67946 1.014169,1.35891 1.521257,2.03836 z m 16.421447,-0.73857 c -0.2716,1.01309 -0.54319,2.02617 -0.81477,3.03925 -1.21153,-1.24293 -2.42306,-2.48585 -3.6346,-3.72878 1.48312,0.22985 2.96625,0.45969 4.44937,0.68953 z m -7.52395,0.41331 c -0.02,0.49013 -0.04,0.98026 -0.0601,1.47039 -0.53357,-0.63417 -1.06715,-1.26833 -1.60073,-1.90249 0.56375,-0.1913 1.1275,-0.3826 1.69124,-0.5739 -0.0102,0.33534 -0.0203,0.67067 -0.0304,1.006 z m -31.598664,2.28945 c -0.696609,-0.54543 -1.39803,-1.08488 -2.091617,-1.63406 -0.40182,-0.33322 -0.80364,-0.66643 -1.205461,-0.99964 0.487791,-0.20689 0.988444,-0.3814 1.482439,-0.57267 0.60488,1.06879 1.209759,2.13758 1.814639,3.20637 z m 32.249784,-2.50989 c -0.17605,0.44899 -0.35209,0.89799 -0.52813,1.34698 0.0258,-0.6604 0.0471,-1.321 0.0791,-1.98114 0.14968,0.21138 0.29937,0.42277 0.44906,0.63416 z m -31.728806,0.35467 c -0.08036,0.7528 -0.16072,1.5056 -0.24108,2.25839 -0.5581,-0.9829 -1.113249,-1.96743 -1.659341,-2.95707 -0.04904,-0.0883 -0.09808,-0.17655 -0.147126,-0.26482 0.682516,0.32117 1.365032,0.64233 2.047547,0.9635 z m 37.646296,2.63901 c -0.43884,0.13091 -0.87644,0.26607 -1.31756,0.3892 -0.68752,-1.29712 -1.37152,-2.59607 -2.06389,-3.89058 1.12715,1.16713 2.2543,2.33426 3.38145,3.50138 z m -1.4855,0.46623 c -0.44416,0.25231 -0.88832,0.50463 -1.33248,0.75695 -0.26245,-1.57472 -0.52476,-3.14946 -0.78739,-4.72415 0.70662,1.3224 1.41325,2.6448 2.11987,3.9672 z m -7.24058,-3.66013 c -0.61815,0.36891 -1.23632,0.73781 -1.854477,1.10672 -0.348955,-0.46861 -0.697906,-0.93721 -1.046858,-1.40582 0.96711,0.0997 1.934225,0.1994 2.901335,0.2991 z m -2.80327,0.22392 c 0.228428,0.30799 0.456971,0.6159 0.685444,0.92387 -0.742514,-0.0593 -1.485028,-0.11864 -2.227542,-0.17795 0.405887,-0.40596 0.811775,-0.81191 1.217662,-1.21787 0.108145,0.15732 0.216291,0.31463 0.324436,0.47195 z m 8.15423,2.1499 c 0.11377,0.66071 0.22716,1.32175 0.34078,1.98258 -0.36121,-0.23427 -0.72242,-0.46854 -1.08363,-0.70281 0.11693,-1.24776 0.23386,-2.49552 0.35079,-3.74328 0.13068,0.82117 0.26137,1.64234 0.39206,2.46351 z m -16.51828,-0.41024 c 0.352084,0.6439 0.704171,1.2878 1.056259,1.9317 -0.907184,-0.5301 -1.814368,-1.06021 -2.721552,-1.59031 0.193747,-0.77459 0.387498,-1.54918 0.581249,-2.32377 0.361345,0.6608 0.722695,1.32159 1.084044,1.98238 z m 21.28615,-1.7556 c 0.37156,0.2229 0.74313,0.4458 1.11469,0.66869 -0.24823,0.92346 -0.49646,1.84692 -0.74469,2.77038 -0.18885,-1.18279 -0.37769,-2.36558 -0.56654,-3.54837 0.0655,0.0364 0.13103,0.0729 0.19654,0.1093 z m -10.1317,0.46214 c -0.34357,1.19884 -0.68788,2.39758 -1.03174,3.59639 -0.25894,-0.98565 -0.50624,-1.97436 -0.760629,-2.9612 0.649619,-0.3858 1.299249,-0.7716 1.948869,-1.15739 -0.0522,0.17406 -0.10433,0.34813 -0.1565,0.5222 z m 2.05409,1.46405 c -0.65609,0.75859 -1.31219,1.51717 -1.96828,2.27576 0.0568,-0.86422 0.10506,-1.72908 0.16732,-2.59289 0.0467,-0.55045 0.0934,-1.1009 0.14016,-1.65135 0.5536,0.65616 1.1072,1.31232 1.6608,1.96848 z m -31.532265,0.80313 c -0.991833,-0.26049 -1.983667,-0.52098 -2.975501,-0.78147 -0.110188,-0.6311 -0.220377,-1.2622 -0.330565,-1.8933 1.102022,0.89159 2.204044,1.78318 3.306066,2.67477 z m 39.795185,1.00048 c -0.42625,-0.24782 -0.8525,-0.49565 -1.27875,-0.74347 0.24782,-0.92189 0.49565,-1.84379 0.74347,-2.76568 0.17842,1.16972 0.35685,2.33943 0.53528,3.50915 z m -37.93519,-2.7714 c -0.440141,0.54781 -0.880283,1.09562 -1.320425,1.64343 0.07464,-0.7242 0.142083,-1.44919 0.234952,-2.17136 0.361824,0.17598 0.723649,0.35195 1.085473,0.52793 z m 27.52073,3.41455 c -0.25484,0 -0.50967,0 -0.76451,0 0.33961,-1.2381 0.67644,-2.47696 1.01969,-3.71406 -0.085,1.23802 -0.17012,2.47604 -0.25518,3.71406 z m -9.539833,-0.80047 c 0.24905,-0.80687 0.4981,-1.61374 0.747145,-2.4206 0.687427,-0.12956 1.374724,-0.25981 2.062257,-0.3888 -0.936465,0.93647 -1.872933,1.87294 -2.809402,2.8094 z m 7.57605,-2.41999 c -0.180881,0.5726 -0.361757,1.1452 -0.542637,1.7178 -0.572598,-0.64295 -1.1452,-1.2859 -1.717798,-1.92885 0.753478,0.0703 1.506957,0.1407 2.260435,0.21105 z m -6.084212,2.66087 c -0.491965,0 -0.983935,0 -1.4759,0 0.915016,-0.90521 1.830028,-1.81042 2.745044,-2.71563 -0.423047,0.90521 -0.846093,1.81042 -1.269144,2.71563 z m -19.112953,-2.69233 c 0.252629,0.11558 0.505171,0.23157 0.757768,0.34731 0,0.79441 0,1.58882 0,2.38322 -0.273164,-0.91726 -0.550504,-1.83328 -0.814565,-2.75321 0.01893,0.008 0.03787,0.0151 0.0568,0.0227 z m 20.412539,2.50273 c -0.356499,0.0604 -0.712659,0.11589 -1.070355,0.17346 0.425979,-0.88176 0.829809,-1.77396 1.244014,-2.66128 -0.05788,0.82927 -0.11577,1.65855 -0.173659,2.48782 z m -19.724848,0.7163 c -0.787042,-0.47879 -1.575516,-0.9552 -2.358908,-1.43995 0.479913,-0.58206 0.959826,-1.16413 1.439739,-1.74619 0.30639,1.06204 0.612779,2.12409 0.919169,3.18614 z m 25.371637,-0.14955 c -0.41733,-0.39792 -0.83465,-0.79584 -1.251979,-1.19376 0.143072,-0.43832 0.272934,-0.88116 0.441885,-1.31051 0.03666,-0.0989 0.07329,-0.19784 0.109941,-0.29676 0.233383,0.93368 0.466773,1.86735 0.700153,2.80103 z m -28.002475,-1.17701 c -0.323347,0.47501 -0.646694,0.95002 -0.970041,1.42503 -0.687215,-0.73774 -1.374429,-1.47549 -2.061644,-2.21324 1.010562,0.26274 2.021123,0.52548 3.031685,0.78821 z m -1.139615,1.50921 c -0.958395,0.16487 -1.916791,0.32975 -2.875187,0.49462 0.247345,-0.92748 0.494691,-1.85496 0.742037,-2.78243 0.71105,0.7626 1.4221,1.5252 2.13315,2.28781 z m 20.249094,-0.63662 c -0.692575,0.21493 -1.388303,0.42002 -2.078841,0.64131 -0.155123,0.0517 -0.310246,0.10338 -0.465369,0.15507 -0.06129,-0.7865 -0.122584,-1.57301 -0.183878,-2.35952 0.909363,0.52105 1.818725,1.0421 2.728088,1.56314 z m -17.631127,0.61843 c -0.74728,0 -1.494561,0 -2.241841,0 0.309253,-0.47805 0.610156,-0.96157 0.926116,-1.43524 0.438575,0.47841 0.87715,0.95683 1.315725,1.43524 z m 36.509753,1.23258 c -0.4255,-0.7323 -0.851,-1.4646 -1.2765,-2.1969 0.4243,-0.12289 0.85083,-0.23782 1.2765,-0.3559 0,0.85093 0,1.70187 0,2.5528 z m 1.55537,-1.7844 c -0.43762,0.62653 -0.87524,1.25307 -1.31286,1.8796 0,-0.87517 0,-1.75035 0,-2.62552 0.43762,0.24864 0.87524,0.49728 1.31286,0.74592 z m -37.075673,0.55182 c -0.235972,0 -0.471945,0 -0.707917,0 -0.345549,-0.37081 -0.691097,-0.74162 -1.036645,-1.11244 0.581521,0.37082 1.163041,0.74163 1.744562,1.11244 z m 31.692233,-0.62354 c 0.25329,0.17935 0.50654,0.35877 0.75981,0.53814 -0.30557,1.31938 -0.61008,2.63901 -0.91631,3.95821 -0.0599,-1.57642 -0.11972,-3.15283 -0.17958,-4.72925 0.11202,0.0776 0.22405,0.15527 0.33608,0.2329 z m 1.1674,2.03713 c -0.35499,0.72862 -0.71033,1.45709 -1.06545,2.18566 0.28916,-1.2242 0.57832,-2.4484 0.86748,-3.67259 0.41365,-0.24047 0.8273,-0.48094 1.24095,-0.7214 -0.34766,0.73611 -0.69532,1.47222 -1.04298,2.20833 z m 2.68069,0.21452 c -0.64254,0.70377 -1.28508,1.40753 -1.92762,2.11129 0.19375,-1.47896 0.3875,-2.95793 0.58125,-4.43689 0.44879,0.7752 0.89758,1.5504 1.34637,2.3256 z m -16.618392,-0.007 c -0.05782,-0.70404 -0.11564,-1.40807 -0.173455,-2.11211 0.359198,-0.0543 0.714007,-0.1325 1.070354,-0.20247 -0.298967,0.77153 -0.597935,1.54305 -0.896899,2.31458 z m -0.406979,-2.10292 c -0.163599,0.52352 -0.322281,1.04864 -0.507504,1.56505 -0.141511,0.41118 -0.283026,0.82235 -0.424537,1.23353 -0.196011,-0.93164 -0.379918,-1.86582 -0.570622,-2.79858 0.500889,0 1.001774,0 1.502663,0 z m 19.222061,1.16679 c -0.60427,0.24367 -1.20854,0.48734 -1.8128,0.73101 0.4191,-0.60427 0.8382,-1.20854 1.25729,-1.81281 0.18517,0.3606 0.37034,0.7212 0.55551,1.0818 z m -4.38378,3.27522 c -0.575,0.13518 -1.14921,0.27385 -1.7274,0.39492 0.75749,-1.5756 1.51499,-3.15121 2.27249,-4.72681 -0.1817,1.44397 -0.36339,2.88793 -0.54509,4.33189 z m -17.496905,-3.78312 c -0.513694,0.41943 -1.027528,0.83872 -1.541279,1.25811 -0.06783,-0.34848 -0.135658,-0.69696 -0.203486,-1.04543 0.778609,-0.24333 1.557213,-0.48666 2.335822,-0.72998 -0.197018,0.17243 -0.394039,0.34486 -0.591057,0.5173 z m 4.028289,1.98319 c -0.285621,-0.0571 -0.571237,-0.11428 -0.856858,-0.17141 0.257423,-0.67827 0.523775,-1.35334 0.775541,-2.03364 0.02713,-0.0774 0.05421,-0.15488 0.08132,-0.23231 -4e-6,0.81245 0,1.6249 0,2.43736 z m -3.420277,-1.76111 c -0.244247,0.79657 -0.488564,1.59317 -0.73284,2.38975 -0.445045,-0.38436 -0.89009,-0.76873 -1.335134,-1.15309 0.69409,-0.58157 1.381582,-1.17112 2.088832,-1.73676 0.07062,-0.0574 0.141234,-0.11471 0.211847,-0.17207 -0.07757,0.22406 -0.155135,0.44811 -0.232705,0.67217 z m 0.941645,2.24286 c -0.500685,0.0701 -1.001367,0.14015 -1.502052,0.21023 0.316999,-1.02286 0.633594,-2.04583 0.961053,-3.0654 0.18033,0.95173 0.360665,1.90345 0.540999,2.85517 z M 78.11682,124.84375 c -0.84596,-0.41855 -1.691919,-0.83711 -2.537879,-1.25566 0.213703,-0.0801 0.427406,-0.16018 0.641109,-0.24026 0.632257,0.49864 1.264514,0.99728 1.89677,1.49592 z m 7.532527,-1.00171 c -0.782352,0.12735 -1.564707,0.2547 -2.347059,0.38205 0.59133,-0.29113 1.182655,-0.58227 1.773984,-0.8734 0.191022,0.16378 0.382048,0.32757 0.573075,0.49135 z m -3.008191,0.47133 c -0.940686,-0.19198 -1.881376,-0.38395 -2.822065,-0.57593 1.593445,-0.12483 3.186885,-0.24966 4.780331,-0.37449 -0.652754,0.31681 -1.305512,0.63361 -1.958266,0.95042 z m 11.141173,1.17721 c -0.344186,0.17209 -0.688372,0.34419 -1.032558,0.51628 0.286843,-0.87007 0.573686,-1.74014 0.860532,-2.6102 0.05734,0.69797 0.114683,1.39595 0.172026,2.09392 z m -14.783523,-1.69861 c -0.05925,0.45471 -0.118497,0.90943 -0.177746,1.36414 -0.741424,-0.58322 -1.482847,-1.16644 -2.224271,-1.74967 0.800673,0.12851 1.601345,0.25702 2.402017,0.38553 z m 16.907684,2.79244 c -0.275202,-0.28432 -0.5504,-0.56865 -0.825598,-0.85297 0,-0.77051 0,-1.54101 0,-2.31151 0.275198,1.05483 0.550396,2.10965 0.825598,3.16448 z m -22.406763,-2.91503 c -0.818719,0.20036 -1.637439,0.40071 -2.456158,0.60107 0.200356,-0.20036 0.400711,-0.40071 0.601066,-0.60107 0.618364,0 1.236728,0 1.855092,0 z m 1.64813,0 c -0.782966,0.83895 -1.565932,1.67789 -2.348897,2.51684 0.233926,-0.4114 0.47221,-0.82021 0.724076,-1.22095 0.26525,-0.43196 0.5305,-0.86392 0.79575,-1.29589 0.276357,0 0.552714,0 0.829071,0 z m -4.107557,3.62234 c -0.07192,-0.9155 -0.143831,-1.83099 -0.215746,-2.74648 1.049244,-0.26757 2.098487,-0.53514 3.147731,-0.80272 -0.977329,1.18307 -1.954657,2.36613 -2.931985,3.5492 z m 7.648166,-1.9264 c -0.434481,0.29028 -0.863535,0.58907 -1.301474,0.87392 -0.07217,0.0433 -0.144343,0.0867 -0.216514,0.13004 -0.464605,-0.77948 -0.938328,-1.5536 -1.396734,-2.33673 -0.04212,-0.0728 -0.08424,-0.14554 -0.126361,-0.21831 1.013694,0.51702 2.027388,1.03405 3.041083,1.55108 z M 70.70953,124.3487 c -0.416207,0.0454 -0.832038,0.0973 -1.2481,0.14526 0.591327,-0.22371 1.182654,-0.44743 1.773982,-0.67114 -0.175294,0.17529 -0.350588,0.35058 -0.525882,0.52588 z m -1.960512,0.21697 c -0.06694,-0.11713 -0.133889,-0.23427 -0.200833,-0.3514 0.694434,-0.12545 1.388867,-0.25089 2.083301,-0.37633 -0.62749,0.24257 -1.254979,0.48515 -1.882468,0.72773 z m 12.803602,0.88525 c -0.853655,-0.0695 -1.70731,-0.13906 -2.560965,-0.20859 0.04937,-0.38537 0.09608,-0.77115 0.169964,-1.15279 0.01261,-0.0725 0.02521,-0.14499 0.03781,-0.21749 0.784394,0.52629 1.568791,1.05258 2.353186,1.57887 z m 0.943891,-0.97473 c -0.185919,0.32286 -0.371836,0.64574 -0.557753,0.9686 -0.792501,-0.51852 -1.585001,-1.03705 -2.3775,-1.55557 0.978418,0.19565 1.956835,0.39131 2.935253,0.58697 z m -6.050908,1.10815 c 0.174132,0.28748 0.348864,0.57476 0.523226,0.86216 -0.577639,0.18238 -1.155279,0.36475 -1.732917,0.54713 0.02708,-0.6661 0.08621,-1.32903 0.132573,-1.99639 0.02691,-0.36792 0.05382,-0.73582 0.08072,-1.10373 0.332132,0.56361 0.664264,1.12721 0.996396,1.69083 z m -2.035696,1.6514 c -0.652211,-0.13253 -1.304421,-0.26506 -1.956632,-0.39758 0.822876,-0.8899 1.649897,-1.77611 2.470189,-2.66829 0.07248,-0.0845 0.144964,-0.16899 0.217447,-0.25348 -0.243668,1.10645 -0.487336,2.2129 -0.731004,3.31935 z m 10.198504,-1.55967 c -0.364437,-0.24573 -0.725025,-0.49685 -1.0773,-0.75979 -0.203693,-0.14867 -0.407386,-0.29735 -0.611079,-0.44602 0.924551,-0.15071 1.849098,-0.30142 2.773649,-0.45213 -0.361757,0.55265 -0.723514,1.10529 -1.08527,1.65794 z m 1.368846,-0.51689 c -0.370746,0.14832 -0.741492,0.29665 -1.112237,0.44497 0.315174,-0.48202 0.630348,-0.96404 0.945522,-1.44607 0.05557,0.3337 0.111143,0.6674 0.166715,1.0011 z m 25.291353,2.77875 c -0.10052,0.24278 -0.20104,0.48557 -0.30155,0.72835 -0.0608,-1.15623 -0.12159,-2.31247 -0.18245,-3.4687 0.64915,-0.26368 1.29829,-0.52737 1.94744,-0.79106 -0.48781,1.17714 -0.97563,2.35427 -1.46344,3.53141 z m -27.002817,-2.25348 c -0.401562,-0.0278 -0.803315,-0.0532 -1.202698,-0.10489 -0.305859,-0.034 -0.611721,-0.068 -0.917581,-0.10208 0.17375,-0.309 0.347547,-0.61798 0.521383,-0.92693 0.532968,0.37797 1.065932,0.75593 1.598896,1.1339 z m -15.048099,2.1213 c -0.103344,-1.01006 -0.240538,-2.01622 -0.361137,-3.0243 -0.01393,-0.0675 0.10784,-0.0272 0.152089,-0.0485 0.523649,-0.0551 1.047297,-0.11014 1.570946,-0.16522 -0.453966,1.07935 -0.907932,2.15869 -1.361898,3.23804 z m 3.022491,-1.00764 c -0.311223,0.15555 -0.622467,0.31106 -0.933675,0.46663 0.734849,-0.88194 1.469729,-1.76387 2.204658,-2.64574 -0.423661,0.72637 -0.847322,1.45274 -1.270983,2.17911 z m 2.848423,0.0358 c -0.0154,0.064 -0.0085,0.14642 -0.03785,0.199 -0.140814,0.0496 -0.281629,0.0993 -0.422444,0.14893 0.197563,-0.83955 0.395126,-1.67911 0.592689,-2.51867 -0.04413,0.72358 -0.08826,1.44716 -0.132389,2.17074 z m 37.494502,1.74007 c -0.51103,0.13028 -1.02207,0.26056 -1.53311,0.39084 0.41948,-1.02901 0.82843,-2.06235 1.25567,-3.08816 0.15262,-0.365 0.30523,-0.73 0.45784,-1.09499 -0.0601,1.2641 -0.12027,2.52821 -0.1804,3.79231 z m -41.773879,-1.53249 c 0.01001,0.14008 0.02002,0.28017 0.03003,0.42026 -0.495576,0.19831 -0.991152,0.39662 -1.486728,0.59493 0.436055,-1.06055 0.87211,-2.1211 1.308166,-3.18164 0.04951,0.72215 0.09902,1.4443 0.14853,2.16645 z m 19.866024,-0.58391 c -0.440617,0.76104 -0.881239,1.52208 -1.321856,2.28312 0,-1.13165 0,-2.2633 0,-3.39495 0.440617,0.37062 0.881239,0.74123 1.321856,1.11183 z m -4.874928,0.8826 c -0.341803,-0.49803 -0.683602,-0.99605 -1.025405,-1.49408 0.400319,-0.15627 0.802565,-0.30766 1.201109,-0.46827 -0.05857,0.65412 -0.117134,1.30824 -0.175704,1.96235 z m -3.963723,-1.66937 c -0.325321,0.62013 -0.650643,1.24026 -0.975964,1.8604 -0.579479,-0.6913 -1.158956,-1.3826 -1.738434,-2.0739 0.904799,0.0712 1.809599,0.14233 2.714398,0.2135 z m -1.290186,1.7875 c -1.067895,-0.32097 -2.135775,-0.63805 -3.201055,-0.96616 0.513419,-0.34227 1.026839,-0.68455 1.540258,-1.02683 0.553598,0.66433 1.107197,1.32866 1.660797,1.99299 z m 29.568072,-0.73264 c -0.0836,0.31326 -0.16711,0.62654 -0.25068,0.93981 -0.38927,-0.0681 -0.77854,-0.13621 -1.16781,-0.20431 0.59306,-0.65117 1.18401,-1.3044 1.77847,-1.95418 -0.11999,0.40623 -0.23999,0.81245 -0.35998,1.21868 z m -25.82173,-0.83622 c -1.064225,0.52718 -2.128449,1.05435 -3.192675,1.58153 0.31824,-0.59671 0.636478,-1.19342 0.954718,-1.79012 0.745985,0.0695 1.491969,0.13906 2.237957,0.20859 z m 10.505782,-0.0325 c -0.587998,0.81081 -1.169544,1.62636 -1.761651,2.43414 -0.05308,0.0708 -0.10615,0.14149 -0.159225,0.21223 0.354605,-0.9392 0.70921,-1.87839 1.063814,-2.81758 0.28569,0.0571 0.571376,0.11414 0.857062,0.17121 z m 15.993218,2.94261 c -0.26457,-0.34964 -0.52915,-0.69927 -0.79372,-1.04891 0.19872,-0.6737 0.39285,-1.34878 0.59452,-2.0216 0.0664,1.02351 0.1328,2.04701 0.1992,3.07051 z m -41.990236,-2.87478 c 0.08589,0.74218 0.172193,1.48434 0.258242,2.22651 -0.14385,0.052 -0.292341,0.0888 -0.439665,0.12933 0.05237,-0.84698 0.10474,-1.69396 0.15711,-2.54095 0.0081,0.0617 0.01621,0.12341 0.02431,0.18511 z m 24.55973,0.79638 c -0.237251,0.61655 -0.474387,1.23334 -0.711592,1.84998 0.0086,-0.76295 0.02668,-1.52583 0.02839,-2.28883 0.352972,-0.17168 0.705943,-0.34337 1.058914,-0.51505 -0.125239,0.31796 -0.250479,0.63593 -0.375718,0.9539 z m -7.993235,0.34752 c 0.120437,0.17047 0.240802,0.34107 0.361211,0.51158 -0.598686,0.35487 -1.193428,0.71654 -1.802788,1.05299 0.259447,-0.85922 0.500017,-1.72403 0.750614,-2.58589 0.230323,0.34044 0.460641,0.68088 0.690963,1.02132 z m 9.799908,1.02684 c 0.02036,0.23384 0.04057,0.46773 0.06088,0.70158 -0.819334,0.0614 -1.638664,0.12286 -2.457998,0.18429 0.6064,-0.833 1.212355,-1.66629 1.83123,-2.49009 0.106431,-0.14294 0.212857,-0.28588 0.319288,-0.42882 0.0822,0.67768 0.164397,1.35536 0.246597,2.03304 z m -13.214051,0.41249 c -0.305981,-0.26641 -0.611962,-0.53283 -0.917943,-0.79924 1.056122,-0.52309 2.112242,-1.04618 3.168362,-1.56927 -0.750138,0.7895 -1.500281,1.57901 -2.250419,2.36851 z m 1.740883,0.24558 c -0.497415,-0.0697 -0.99483,-0.13934 -1.492244,-0.20901 0.73618,-0.78589 1.472356,-1.57179 2.208536,-2.35768 -0.238761,0.85556 -0.477527,1.71112 -0.716292,2.56669 z m 12.329615,-1.82343 c 0.01735,0.44307 0.03474,0.88614 0.0521,1.32921 -0.269276,-0.68633 -0.538548,-1.37265 -0.807824,-2.05899 0.251909,0.24326 0.503817,0.48652 0.755726,0.72978 z m -4.543543,1.46385 c -0.187963,-0.62293 -0.375923,-1.24586 -0.563886,-1.86878 0.494491,-0.0594 0.988977,-0.11877 1.483464,-0.17815 -0.306528,0.68231 -0.613055,1.36462 -0.919578,2.04693 z m 4.582974,0.3986 c -0.219765,0 -0.43953,0 -0.659295,0 -0.0824,-0.77834 -0.164805,-1.55667 -0.247209,-2.33501 0.302169,0.77834 0.604334,1.55667 0.906504,2.33501 z m -17.762906,-1.21909 c 0.115038,0.0971 0.22975,0.19453 0.344663,0.29175 -1.175504,0.28371 -2.351008,0.56742 -3.526512,0.85113 0.668214,-0.68851 1.336428,-1.37702 2.004642,-2.06552 0.392402,0.30754 0.784805,0.61509 1.177207,0.92264 z m 14.167544,1.39111 c -0.296858,-0.11495 -0.593712,-0.22991 -0.89057,-0.34486 0.295136,-0.65539 0.573812,-1.31837 0.89057,-1.96378 0,0.76955 0,1.53909 0,2.30864 z m -1.134508,-0.38899 c -0.630759,0.13021 -1.261515,0.26042 -1.892275,0.39063 0.440548,-0.75096 0.881101,-1.50192 1.321649,-2.25288 0.190207,0.62075 0.380419,1.2415 0.570626,1.86225 z m -16.366275,0.004 c 0.08567,-0.46656 0.171344,-0.93313 0.257016,-1.3997 0.514167,-0.15234 1.028336,-0.30468 1.542504,-0.45703 -0.59984,0.61891 -1.199681,1.23782 -1.79952,1.85673 z m 5.450249,-0.93858 c -0.490876,0.0648 -0.981754,0.12967 -1.472631,0.1945 -0.453967,-0.36128 -0.907933,-0.72256 -1.361899,-1.08384 0.944844,0.29645 1.889687,0.59289 2.83453,0.88934 z m -7.652864,1.18662 c -0.54461,-0.41821 -1.089219,-0.83643 -1.633829,-1.25464 0.350111,-0.18483 0.700222,-0.36966 1.050333,-0.55448 0.194499,0.60304 0.388997,1.20607 0.583496,1.80912 z m 0.589216,-1.6371 c 0.320555,0.0701 0.64111,0.14029 0.961665,0.21043 -0.440355,0.50027 -0.880701,1.00055 -1.321038,1.50083 -0.190139,-0.62047 -0.38028,-1.24095 -0.57042,-1.86142 0.309931,0.05 0.619862,0.10011 0.929793,0.15016 z m 1.448116,1.23891 c -0.08729,-0.33889 -0.145054,-0.68485 -0.220241,-1.02664 0.141651,-0.05 0.283303,-0.1 0.424954,-0.14996 -0.06824,0.3922 -0.136475,0.7844 -0.204713,1.1766 z m -0.122175,0.36325 c -0.276561,0 -0.553122,0 -0.829683,0 0.193672,-0.38706 0.387318,-0.77413 0.580839,-1.16127 0.08295,0.38709 0.165896,0.77418 0.248844,1.16127 z m 34.222548,-0.50749 c 0.0605,0.0947 0.12065,0.18975 0.18102,0.28459 -0.73318,0.0579 -1.46637,0.11578 -2.19955,0.17366 0.53017,-0.35665 1.06034,-0.71329 1.59051,-1.06994 0.14268,0.2039 0.28535,0.40779 0.42802,0.61169 z m 0.39963,-0.50178 c 0.14482,0.0183 0.28971,0.0362 0.43455,0.0543 -0.16313,0.2176 -0.32638,0.4351 -0.48972,0.65255 -0.19017,-0.272 -0.38053,-0.54387 -0.57083,-0.81579 0.20867,0.0363 0.41733,0.0726 0.626,0.10889 z m -36.679327,1.19519 c -0.929112,-0.0594 -1.858224,-0.11877 -2.787336,-0.17815 0.355832,-0.36564 0.711663,-0.73128 1.067495,-1.09692 0.57328,0.42502 1.146561,0.85005 1.719841,1.27507 z m 34.815037,-0.8352 c -0.28961,0.18976 -0.57928,0.37946 -0.86891,0.56919 0,-0.21445 0,-0.4289 0,-0.64335 0.47692,-0.10795 0.95383,-0.21588 1.43075,-0.32383 -0.18728,0.13267 -0.37456,0.26533 -0.56184,0.39799 z m -25.793328,0.30196 c -0.720312,-0.16691 -1.440624,-0.33383 -2.160935,-0.50075 0.456757,-0.0527 0.913516,-0.10542 1.370275,-0.15813 0.263553,0.21963 0.527107,0.43926 0.79066,0.65888 z m 4.141672,0.31443 c -0.55993,0 -1.119865,0 -1.679796,0 0.559931,-0.32267 1.119866,-0.64533 1.679796,-0.968 0,0.32267 0,0.64533 0,0.968 z m -16.161969,-0.0325 c -0.09691,-0.15868 -0.193817,-0.31735 -0.290726,-0.47603 0.417828,-0.15245 0.8338,-0.31018 1.2528,-0.45928 -0.320692,0.31177 -0.641383,0.62354 -0.962074,0.93531 z m 40.531085,-0.47236 c 0.16621,0.23118 0.33278,0.46212 0.49912,0.69321 -0.41685,-0.12047 -0.8337,-0.24094 -1.25055,-0.36141 0.16671,-0.22229 0.33343,-0.44457 0.50014,-0.66686 0.0838,0.11169 0.16753,0.22338 0.25129,0.33506 z m -36.531402,0.54632 c -0.129869,0.0361 -0.259739,0.0722 -0.38961,0.10828 0.266959,-0.30312 0.533918,-0.60624 0.800877,-0.90936 -0.137089,0.26702 -0.274178,0.53405 -0.411267,0.80108 z m 5.318678,-0.46092 c 0.07832,0.21534 0.156634,0.43068 0.23495,0.64602 -1.233798,-0.0583 -2.467598,-0.11659 -3.701397,-0.17489 1.11721,-0.26233 2.234418,-0.52465 3.351628,-0.78698 0.03827,0.10528 0.07655,0.21057 0.114819,0.31585 z m 2.565256,0.27112 c -0.705261,0.12387 -1.410523,0.24775 -2.115784,0.37163 -0.114313,-0.30571 -0.240411,-0.6072 -0.346911,-0.9157 0.820899,0.18136 1.641796,0.36271 2.462695,0.54407 z m -12.137772,0.0584 c -0.198449,-0.0735 -0.396897,-0.1471 -0.595346,-0.22065 0.11877,-0.0424 0.237539,-0.0849 0.356309,-0.12728 0.07968,0.11597 0.159358,0.23195 0.239037,0.34793 z" /></g></g></svg>
